<?xml version="1.0" encoding="UTF-8"?>
<svg version="1.1" xmlns="http://www.w3.org/2000/svg" width="500" height="500">
<path d="M0 0 C0.62390625 0.2784375 1.2478125 0.556875 1.890625 0.84375 C9.28283039 4.57199272 14.18354887 11.32403335 17 19 C17.56096424 22.31164229 17.62149431 25.52157192 17.5625 28.875 C17.55081787 29.75833008 17.53913574 30.64166016 17.52709961 31.55175781 C17.20550689 41.04005746 14.59942275 46.77748247 7.75 53.375 C0.73470504 59.57272299 -6.74170956 61.70315357 -15.9375 61.5 C-17.25463989 61.48187256 -17.25463989 61.48187256 -18.59838867 61.46337891 C-27.70262409 61.18428948 -34.72377193 59.00267999 -41.46875 52.703125 C-48.76023741 44.59320533 -50.76657241 35.88063056 -50.43359375 25.1171875 C-49.80377761 16.63723306 -45.60970625 10.13368975 -39.5 4.4375 C-28.49861402 -4.44469103 -12.90996804 -5.99022517 0 0 Z M-30 12 C-30 12.66 -30 13.32 -30 14 C-30.99 14.33 -31.98 14.66 -33 15 C-37.19369559 21.03106724 -38.0331793 27.86262868 -37 35 C-35.20842477 40.9283023 -32.06251224 44.55749168 -27 48 C-20.66490277 51.02356913 -13.78284729 50.8667885 -7.1875 48.8125 C-3.80304427 46.88800556 -1.56248613 44.91838699 1 42 C1.52980469 41.45730469 2.05960937 40.91460937 2.60546875 40.35546875 C5.73260554 35.0734982 4.91563959 26.9635103 4 21 C1.54175625 14.85439062 -3.16445233 11.70164244 -9 9 C-16.52313508 6.17882434 -23.09604944 8.88836031 -30 12 Z " fill="#86C6C8" transform="translate(361,221)"/>
<path d="M0 0 C3.96 0 7.92 0 12 0 C15.37375234 3.37375234 17.47878781 6.06337045 20 10 C21.27397738 11.80121036 22.57100166 13.58444204 23.86865234 15.36865234 C25.52764232 17.65659669 27.1563013 19.96489578 28.77880859 22.27880859 C29.64445419 23.49888086 30.52383992 24.70925717 31.41259766 25.91259766 C35 30.792121 35 30.792121 35 33 C36.65 33.66 38.3 34.32 40 35 C40 23.45 40 11.9 40 0 C43.96 0 47.92 0 52 0 C52 20.46 52 40.92 52 62 C48.7 62 45.4 62 42 62 C39.07923929 59.0241306 37.24027147 56.46729039 35 53 C33.40835705 50.76036127 31.79168136 48.54005899 30.1730957 46.31982422 C28.4988732 44.02174247 26.83988621 41.71336774 25.18359375 39.40234375 C24.12257349 37.93476737 23.06137529 36.46731963 22 35 C21.44973145 34.2280127 20.89946289 33.45602539 20.33251953 32.66064453 C19.80126465 31.9282959 19.27000977 31.19594727 18.72265625 30.44140625 C18.24707275 29.77955322 17.77148926 29.1177002 17.28149414 28.43579102 C16.85860107 27.96197998 16.43570801 27.48816895 16 27 C15.34 27 14.68 27 14 27 C13.67 38.55 13.34 50.1 13 62 C8.71 62 4.42 62 0 62 C0 41.54 0 21.08 0 0 Z " fill="#85C9CC" transform="translate(250,219)"/>
<path d="M0 0 C3.63 0 7.26 0 11 0 C11.30591064 0.79245117 11.61182129 1.58490234 11.92700195 2.40136719 C13.11799119 5.48538847 14.3096784 8.5691383 15.50183105 11.65270996 C16.04136265 13.04853774 16.58067007 14.4444522 17.11975098 15.8404541 C20.13032898 23.63548325 23.1574376 31.42303519 26.24609375 39.1875 C26.75676408 40.47428008 27.26742508 41.76106385 27.77807617 43.04785156 C28.74658229 45.48381553 29.71928918 47.91811422 30.6965332 50.35058594 C31.1318335 51.44661133 31.56713379 52.54263672 32.015625 53.671875 C32.40008789 54.6319043 32.78455078 55.59193359 33.18066406 56.58105469 C34 59 34 59 34 62 C30.87819599 62.96661363 28.47916205 62.98988909 25.25 62.5625 C24.45078125 62.46066406 23.6515625 62.35882813 22.828125 62.25390625 C22.22484375 62.17011719 21.6215625 62.08632813 21 62 C20.16235732 60.04350603 19.33000941 58.08474444 18.5 56.125 C18.0359375 55.03445313 17.571875 53.94390625 17.09375 52.8203125 C16 50 16 50 16 48 C8.74 48.33 1.48 48.66 -6 49 C-6.33 50.32 -6.66 51.64 -7 53 C-7.50733153 54.5877111 -8.02845182 56.17107494 -8.5625 57.75 C-8.83191406 58.54921875 -9.10132813 59.3484375 -9.37890625 60.171875 C-9.58386719 60.77515625 -9.78882813 61.3784375 -10 62 C-11.79090253 62.19466332 -13.58276505 62.38051213 -15.375 62.5625 C-16.87160156 62.71912109 -16.87160156 62.71912109 -18.3984375 62.87890625 C-21 63 -21 63 -23 62 C-21.79646604 55.63980762 -19.94059906 49.89612363 -17.4375 43.9375 C-13.81918101 35.12815546 -10.43243759 26.24867231 -7.14624023 17.31030273 C-4.96932572 11.43138959 -2.60721074 5.70180546 0 0 Z M4 22 C0.75441594 28.75505602 0.75441594 28.75505602 -1 36 C3.07369424 38.03684712 5.58937864 38.0257259 10 37 C11.31712811 33.37789769 10.68301982 31.32755223 9.25 27.8125 C8.90453125 26.93207031 8.5590625 26.05164063 8.203125 25.14453125 C7.13092356 22.66994797 7.13092356 22.66994797 4 22 Z " fill="#87C7C9" transform="translate(453,219)"/>
<path d="M0 0 C3.36914062 0.24414062 3.36914062 0.24414062 6.73828125 0.48828125 C9.4167 6.41631647 11.96020313 12.38110589 14.36328125 18.42578125 C14.69666504 19.26334961 15.03004883 20.10091797 15.37353516 20.96386719 C16.49981314 23.80350907 17.62011649 26.64543486 18.73828125 29.48828125 C19.17076172 30.58736816 19.60324219 31.68645508 20.04882812 32.81884766 C21.41030262 36.28943563 22.76315461 39.7632645 24.11328125 43.23828125 C24.54205566 44.33261475 24.97083008 45.42694824 25.41259766 46.55444336 C27.57703951 52.15635041 29.44852385 57.62059375 30.73828125 63.48828125 C26.44828125 63.48828125 22.15828125 63.48828125 17.73828125 63.48828125 C13.86328125 53.86328125 13.86328125 53.86328125 12.73828125 50.48828125 C5.80828125 50.48828125 -1.12171875 50.48828125 -8.26171875 50.48828125 C-9.91171875 54.77828125 -11.56171875 59.06828125 -13.26171875 63.48828125 C-17.55171875 63.48828125 -21.84171875 63.48828125 -26.26171875 63.48828125 C-25.35304458 58.94491039 -24.06526381 54.76806305 -22.51171875 50.42578125 C-22.24077393 49.66338135 -21.9698291 48.90098145 -21.69067383 48.11547852 C-19.87043032 43.04712941 -17.87736019 38.08439034 -15.75 33.13671875 C-13.15449982 26.77399652 -10.82292491 20.30769131 -8.47143555 13.85131836 C-8.10058838 12.84593018 -7.72974121 11.84054199 -7.34765625 10.8046875 C-7.01813965 9.90177979 -6.68862305 8.99887207 -6.34912109 8.06860352 C-3.24397953 0.700341 -3.24397953 0.700341 0 0 Z M1.73828125 20.48828125 C-2.28010285 29.80766584 -2.28010285 29.80766584 -5.26171875 39.48828125 C-0.64171875 39.48828125 3.97828125 39.48828125 8.73828125 39.48828125 C6.50356162 30.69942343 6.50356162 30.69942343 2.73828125 22.48828125 C2.40828125 21.82828125 2.07828125 21.16828125 1.73828125 20.48828125 Z " fill="#47464D" transform="translate(211.26171875,217.51171875)"/>
<path d="M0 0 C0.7108374 0.0112793 1.4216748 0.02255859 2.15405273 0.03417969 C10.79384353 0.25902529 16.98247819 1.67365629 24.25 6.3125 C22.8802836 10.30750618 20.99277578 13.11259492 18.25 16.3125 C17.033125 15.8175 15.81625 15.3225 14.5625 14.8125 C7.26590113 12.40715432 -1.13125016 11.76669783 -8.3125 14.875 C-12.77862531 17.52263969 -14.85391426 21.31151487 -16.33203125 26.26171875 C-17.66733489 32.8134422 -17.03413116 38.42371309 -13.75 44.3125 C-10.11905816 48.8771126 -6.32357608 50.97608492 -0.75 52.3125 C4.11669541 52.7759948 7.35937053 52.39479155 11.9375 50.75 C15.43180484 49.49517232 17.71306217 48.69561414 21.25 50.3125 C25.25 54.42060811 25.25 54.42060811 25.25 58.3125 C23.83671871 59.13087442 22.41921654 59.94196219 21 60.75 C20.21109375 61.20246094 19.4221875 61.65492188 18.609375 62.12109375 C10.87961045 66.02436889 -0.64029515 65.82392129 -8.89355469 63.78222656 C-17.7900314 60.71402059 -23.49735194 55.58153789 -27.75 47.3125 C-28.10578125 46.66539062 -28.4615625 46.01828125 -28.828125 45.3515625 C-32.05200342 38.40556989 -31.92929439 30.11244858 -29.6953125 22.9140625 C-28.00382604 18.7804299 -26.22926465 15.03139697 -23.75 11.3125 C-23.09 11.3125 -22.43 11.3125 -21.75 11.3125 C-21.564375 10.735 -21.37875 10.1575 -21.1875 9.5625 C-19.4752282 6.88242239 -17.48478176 5.79835202 -14.69921875 4.33984375 C-12.64226927 3.31133147 -12.64226927 3.31133147 -10.50390625 1.7109375 C-6.97261186 -0.0822588 -3.86607374 -0.09993376 0 0 Z " fill="#49484E" transform="translate(45.75,217.6875)"/>
<path d="M0 0 C1.79244141 0.01740234 1.79244141 0.01740234 3.62109375 0.03515625 C5.41740234 0.04869141 5.41740234 0.04869141 7.25 0.0625 C8.17683594 0.07410156 9.10367187 0.08570313 10.05859375 0.09765625 C11.57043082 4.0811417 13.08205987 8.064706 14.59350586 12.04833984 C15.10647113 13.40024895 15.61949078 14.75213742 16.13256836 16.10400391 C16.63100335 17.41730972 17.12920571 18.73070386 17.62716675 20.04418945 C18.1127961 21.32322459 18.59986255 22.60171508 19.08840942 23.87963867 C20.08934817 26.50339373 21.0689732 29.12799534 21.97802734 31.78515625 C22.59374737 33.58452072 23.31287262 35.34816386 24.05859375 37.09765625 C25.54359375 37.59265625 25.54359375 37.59265625 27.05859375 38.09765625 C27.20554687 37.56140625 27.3525 37.02515625 27.50390625 36.47265625 C31.06879622 24.01602921 35.99644882 12.0085855 41.05859375 0.09765625 C45.01859375 0.09765625 48.97859375 0.09765625 53.05859375 0.09765625 C54.05859375 2.09765625 54.05859375 2.09765625 53.265625 4.921875 C52.81000966 6.21292932 52.34411061 7.50037547 51.87109375 8.78515625 C51.61207275 9.50340576 51.35305176 10.22165527 51.08618164 10.96166992 C48.15939666 18.98289764 45.07283168 26.94550395 41.99609375 34.91015625 C41.74115143 35.57042816 41.48620911 36.23070007 41.22354126 36.91098022 C37.95634304 45.3587613 34.57692105 53.75050544 31.05859375 62.09765625 C27.42859375 62.09765625 23.79859375 62.09765625 20.05859375 62.09765625 C19.41792969 60.49019531 18.77726562 58.88273437 18.1171875 57.2265625 C17.24369957 55.03767661 16.36998585 52.84888081 15.49609375 50.66015625 C15.04081299 49.51957764 14.58553223 48.37899902 14.11645508 47.20385742 C11.53683312 40.75366654 8.92102537 34.32131916 6.24609375 27.91015625 C3.65649047 21.69045729 1.31098219 15.41511646 -0.8984375 9.05078125 C-1.84596072 6.36790651 -2.86386378 3.73056545 -3.94140625 1.09765625 C-2.94140625 0.09765625 -2.94140625 0.09765625 0 0 Z " fill="#86C6C8" transform="translate(381.94140625,218.90234375)"/>
<path d="M0 0 C1.51400391 0.01740234 1.51400391 0.01740234 3.05859375 0.03515625 C4.07050781 0.04417969 5.08242187 0.05320313 6.125 0.0625 C7.29869141 0.07990234 7.29869141 0.07990234 8.49609375 0.09765625 C10.49727068 5.91076362 10.76124454 11.06840512 10.69140625 17.1875 C10.68857635 18.1320253 10.68574646 19.0765506 10.68283081 20.04969788 C10.67170059 23.04498349 10.64660935 26.03996211 10.62109375 29.03515625 C10.6110547 31.07486545 10.60193047 33.11457937 10.59375 35.15429688 C10.57349245 40.13562802 10.53433016 45.11630141 10.49609375 50.09765625 C20.06609375 50.42765625 29.63609375 50.75765625 39.49609375 51.09765625 C39.49609375 55.05765625 39.49609375 59.01765625 39.49609375 63.09765625 C25.30609375 63.09765625 11.11609375 63.09765625 -3.50390625 63.09765625 C-3.52485124 55.03848934 -3.54488939 46.97942046 -3.55565643 38.92024994 C-3.56094633 35.16760601 -3.56802016 31.4149845 -3.5793457 27.66235352 C-3.59017766 24.05083938 -3.59618374 20.43934704 -3.59878349 16.82781792 C-3.60063719 15.44705296 -3.60425674 14.06628925 -3.60963631 12.68553352 C-3.61685072 10.75789673 -3.61731434 8.83023818 -3.61743164 6.90258789 C-3.61965225 5.80338516 -3.62187286 4.70418243 -3.62416077 3.57167053 C-3.46120027 0.2190596 -3.35779213 0.13095913 0 0 Z " fill="#46454B" transform="translate(83.50390625,217.90234375)"/>
<path d="M0 0 C1.34644592 -0.00472824 1.34644592 -0.00472824 2.72009277 -0.009552 C4.18412537 -0.00651566 4.18412537 -0.00651566 5.67773438 -0.00341797 C6.67276978 -0.00437469 7.66780518 -0.00533142 8.69299316 -0.00631714 C10.80135155 -0.00699907 12.90971203 -0.0051439 15.01806641 -0.00097656 C18.25753465 0.0043715 21.49686423 -0.00092114 24.73632812 -0.00732422 C26.77929718 -0.00666344 28.82226615 -0.00538228 30.86523438 -0.00341797 C31.8412561 -0.0054422 32.81727783 -0.00746643 33.82287598 -0.009552 C34.72050659 -0.00639984 35.61813721 -0.00324768 36.54296875 0 C37.73424377 0.00119339 37.73424377 0.00119339 38.94958496 0.00241089 C40.77148438 0.12939453 40.77148438 0.12939453 41.77148438 1.12939453 C41.77148438 4.75939453 41.77148438 8.38939453 41.77148438 12.12939453 C26.26148438 12.12939453 10.75148437 12.12939453 -5.22851562 12.12939453 C-5.22851562 0.0052378 -5.22851562 0.0052378 0 0 Z " fill="#8BC9CC" transform="translate(136.228515625,268.87060546875)"/>
<path d="M0 0 C0.87760986 -0.00315216 1.75521973 -0.00630432 2.65942383 -0.009552 C3.61357178 -0.00752777 4.56771973 -0.00550354 5.55078125 -0.00341797 C6.52362061 -0.00437469 7.49645996 -0.00533142 8.4987793 -0.00631714 C10.56005925 -0.00699905 12.62134133 -0.00514399 14.68261719 -0.00097656 C17.84965813 0.00437153 21.01655725 -0.00092119 24.18359375 -0.00732422 C26.1809899 -0.00666344 28.17838596 -0.00538228 30.17578125 -0.00341797 C31.1299292 -0.0054422 32.08407715 -0.00746643 33.06713867 -0.009552 C34.38355347 -0.00482376 34.38355347 -0.00482376 35.7265625 0 C36.50298096 0.00079559 37.27939941 0.00159119 38.0793457 0.00241089 C39.86328125 0.12939453 39.86328125 0.12939453 40.86328125 1.12939453 C40.93533636 2.81548419 40.94714193 4.50440112 40.92578125 6.19189453 C40.91675781 7.11099609 40.90773437 8.03009766 40.8984375 8.97705078 C40.88683594 9.68732422 40.87523437 10.39759766 40.86328125 11.12939453 C38.12087017 12.50060007 35.9190572 12.25908717 32.8515625 12.26220703 C31.0111438 12.26510742 31.0111438 12.26510742 29.13354492 12.26806641 C27.82748291 12.26355469 26.5214209 12.25904297 25.17578125 12.25439453 C23.86134033 12.25246094 22.54689941 12.25052734 21.19262695 12.24853516 C12.37762946 12.20927256 3.63908946 11.97817736 -5.13671875 11.12939453 C-5.16360026 9.48364887 -5.18305998 7.8377804 -5.19921875 6.19189453 C-5.21082031 5.27537109 -5.22242188 4.35884766 -5.234375 3.41455078 C-5.06682832 -0.5060416 -3.48333514 0.00356936 0 0 Z " fill="#8BCCCF" transform="translate(136.13671875,218.87060546875)"/>
<path d="M0 0 C0.66 0 1.32 0 2 0 C2.66 0.66 3.32 1.32 4 2 C4.66 1.34 5.32 0.68 6 0 C6.33 1.65 6.66 3.3 7 5 C8.16571533 4.99214478 8.16571533 4.99214478 9.35498047 4.98413086 C12.86164549 4.96339844 16.36829763 4.95035179 19.875 4.9375 C21.70998047 4.92493164 21.70998047 4.92493164 23.58203125 4.91210938 C25.33193359 4.90727539 25.33193359 4.90727539 27.1171875 4.90234375 C28.73536377 4.89448853 28.73536377 4.89448853 30.38623047 4.88647461 C33 5 33 5 35 6 C35.02688151 7.64574566 35.04634123 9.29161413 35.0625 10.9375 C35.07410156 11.85402344 35.08570313 12.77054688 35.09765625 13.71484375 C35 16 35 16 34 17 C32.00035018 17.08758003 29.9976389 17.10696576 27.99609375 17.09765625 C26.78115234 17.09443359 25.56621094 17.09121094 24.31445312 17.08789062 C23.03505859 17.07951172 21.75566406 17.07113281 20.4375 17.0625 C19.15423828 17.05798828 17.87097656 17.05347656 16.54882812 17.04882812 C13.36583978 17.03699545 10.18294238 17.02051068 7 17 C6.67 18.65 6.34 20.3 6 22 C4.68 21.34 3.36 20.68 2 20 C1.01 20.66 0.02 21.32 -1 22 C-1 20.35 -1 18.7 -1 17 C-2.65 17 -4.3 17 -6 17 C-6 16.01 -6 15.02 -6 14 C-4.68 14 -3.36 14 -2 14 C-2 12.35 -2 10.7 -2 9 C-3.65 9 -5.3 9 -7 9 C-7 8.34 -7 7.68 -7 7 C-5.02 6.67 -3.04 6.34 -1 6 C-0.67 4.02 -0.34 2.04 0 0 Z " fill="#86C8CB" transform="translate(139,238)"/>
<path d="M0 0 C2.97 0 5.94 0 9 0 C12.79175794 8.16686326 15.89184291 16.55617323 19 25 C13.28125 29.015625 13.28125 29.015625 10.75 28.875 C7.79025787 27.39512894 7.04639651 26.13918952 6 23 C3.88214887 21.88214887 3.88214887 21.88214887 1 21 C-1.5 18.5 -1.5 18.5 -4 16 C-3.71395102 14.32457024 -3.38218767 12.65614657 -3 11 C-3.66 10.67 -4.32 10.34 -5 10 C-3.35 6.7 -1.7 3.4 0 0 Z " fill="#4B4A50" transform="translate(209,218)"/>
<path d="M0 0 C0.33 0.66 0.66 1.32 1 2 C0.34 2 -0.32 2 -1 2 C-1 2.66 -1 3.32 -1 4 C-0.34 4.33 0.32 4.66 1 5 C1.33 5.33 1.66 5.66 2 6 C2.37125 5.484375 2.7425 4.96875 3.125 4.4375 C5 3 5 3 8.1875 3.3125 C9.115625 3.539375 10.04375 3.76625 11 4 C11.33 5.32 11.66 6.64 12 8 C10.02 8.66 8.04 9.32 6 10 C6 10.66 6 11.32 6 12 C5.3503125 12.61875 5.3503125 12.61875 4.6875 13.25 C2.46678553 15.55296316 1.34473539 18.11842417 0 21 C-0.33 21 -0.66 21 -1 21 C-1 11 -1 11 0 9 C-1.32 8.67 -2.64 8.34 -4 8 C-8.10005628 14.01341588 -10.18231345 17.97784661 -11.125 25.25 C-11.29257812 26.51328125 -11.46015625 27.7765625 -11.6328125 29.078125 C-11.75398438 30.04234375 -11.87515625 31.0065625 -12 32 C-12.66 32 -13.32 32 -14 32 C-14.84745456 22.26996611 -13.64782341 15.10545369 -8 7 C-5.51686998 4.37446826 -2.92976214 2.11180824 0 0 Z " fill="#8AC0C1" transform="translate(325,223)"/>
<path d="M0 0 C3.96 0 7.92 0 12 0 C12 20.46 12 40.92 12 62 C2 62 2 62 -0.625 59.5 C-1.07875 58.675 -1.5325 57.85 -2 57 C-1.01 56.505 -1.01 56.505 0 56 C0.495 56.9590625 0.495 56.9590625 1 57.9375 C3.46028855 60.9052585 3.46028855 60.9052585 11 61 C11 41.53 11 22.06 11 2 C7.7 2 4.4 2 1 2 C1 14.87 1 27.74 1 41 C0.01 40.67 -0.98 40.34 -2 40 C-2.6875 37.9375 -2.6875 37.9375 -3 36 C-2.34 36.33 -1.68 36.66 -1 37 C-0.67 24.79 -0.34 12.58 0 0 Z " fill="#84AFB1" transform="translate(290,219)"/>
<path d="M0 0 C0.87760986 -0.00315216 1.75521973 -0.00630432 2.65942383 -0.009552 C3.61357178 -0.00752777 4.56771973 -0.00550354 5.55078125 -0.00341797 C6.52362061 -0.00437469 7.49645996 -0.00533142 8.4987793 -0.00631714 C10.56005925 -0.00699905 12.62134133 -0.00514399 14.68261719 -0.00097656 C17.84965813 0.00437153 21.01655725 -0.00092119 24.18359375 -0.00732422 C26.1809899 -0.00666344 28.17838596 -0.00538228 30.17578125 -0.00341797 C31.1299292 -0.0054422 32.08407715 -0.00746643 33.06713867 -0.009552 C34.38355347 -0.00482376 34.38355347 -0.00482376 35.7265625 0 C36.50298096 0.00079559 37.27939941 0.00159119 38.0793457 0.00241089 C39.86328125 0.12939453 39.86328125 0.12939453 40.86328125 1.12939453 C41.00443286 3.79998304 40.90575232 6.45371691 40.86328125 9.12939453 C40.20328125 9.12939453 39.54328125 9.12939453 38.86328125 9.12939453 C38.86328125 6.81939453 38.86328125 4.50939453 38.86328125 2.12939453 C25.00328125 2.12939453 11.14328125 2.12939453 -3.13671875 2.12939453 C-3.13671875 4.76939453 -3.13671875 7.40939453 -3.13671875 10.12939453 C5.11328125 10.12939453 13.36328125 10.12939453 21.86328125 10.12939453 C21.86328125 10.45939453 21.86328125 10.78939453 21.86328125 11.12939453 C12.95328125 11.12939453 4.04328125 11.12939453 -5.13671875 11.12939453 C-5.13671875 0.00526358 -5.13671875 0.00526358 0 0 Z " fill="#8EBCBD" transform="translate(136.13671875,218.87060546875)"/>
<path d="M0 0 C3.92677835 3.73540106 7.20137002 7.67432834 10.375 12.0625 C10.83777344 12.67416016 11.30054688 13.28582031 11.77734375 13.91601562 C15.06535109 18.45542874 15.06535109 18.45542874 14.74853516 21.09545898 C13.75105395 23.63340774 12.25258767 24.54671764 10 26 C10.148544 31.79321599 12.95589579 34.77759617 16.6015625 38.94921875 C17.06304687 39.62597656 17.52453125 40.30273438 18 41 C17.67 41.99 17.34 42.98 17 44 C16.3709375 43.11699219 15.741875 42.23398437 15.09375 41.32421875 C9.76764302 33.85429625 4.41226819 26.4078531 -1 19 C2 19 2 19 3.6875 20.5 C4.120625 20.995 4.55375 21.49 5 22 C6.98 21.34 8.96 20.68 11 20 C10.49396008 17.83125748 10.00016187 16.00032373 9 14 C7.02 14.66 5.04 15.32 3 16 C3.05220703 14.98679688 3.05220703 14.98679688 3.10546875 13.953125 C3.14607422 12.61507812 3.14607422 12.61507812 3.1875 11.25 C3.23970703 9.92742187 3.23970703 9.92742187 3.29296875 8.578125 C2.94708688 5.53436457 1.92206641 4.32060511 0 2 C0 1.34 0 0.68 0 0 Z " fill="#8ABEC0" transform="translate(270,231)"/>
<path d="M0 0 C0.66 0 1.32 0 2 0 C2.66 2.31 3.32 4.62 4 7 C13.57 7 23.14 7 33 7 C33 7.33 33 7.66 33 8 C23.43 8.33 13.86 8.66 4 9 C3.34 10.32 2.68 11.64 2 13 C2.33 13.66 2.66 14.32 3 15 C2.01 15.495 2.01 15.495 1 16 C1.99 16.33 2.98 16.66 4 17 C3 20 3 20 0.9375 21.1875 C0.298125 21.455625 -0.34125 21.72375 -1 22 C-1 20.35 -1 18.7 -1 17 C-2.65 17 -4.3 17 -6 17 C-6 16.01 -6 15.02 -6 14 C-4.68 14 -3.36 14 -2 14 C-2 12.35 -2 10.7 -2 9 C-3.65 9 -5.3 9 -7 9 C-7 8.34 -7 7.68 -7 7 C-5.02 6.67 -3.04 6.34 -1 6 C-0.67 4.02 -0.34 2.04 0 0 Z " fill="#99D0D3" transform="translate(139,238)"/>
<path d="M0 0 C0.66 0.33 1.32 0.66 2 1 C2 4.63 2 8.26 2 12 C-13.51 12 -29.02 12 -45 12 C-45 8.37 -45 4.74 -45 1 C-43.02 1 -41.04 1 -39 1 C-40.32 1.33 -41.64 1.66 -43 2 C-42.67 4.64 -42.34 7.28 -42 10 C-36.17928378 10.02464638 -30.35859766 10.0428343 -24.5378418 10.05493164 C-22.55606559 10.05997267 -20.57429311 10.06680538 -18.5925293 10.07543945 C-15.75047891 10.08751515 -12.90847753 10.09323045 -10.06640625 10.09765625 C-8.72891075 10.10539818 -8.72891075 10.10539818 -7.36439514 10.11329651 C-5.24259399 10.11349177 -3.1208922 10.0621003 -1 10 C0.23267348 8.99163938 0.23267348 8.99163938 0.09765625 6.93359375 C0.08605469 6.10988281 0.07445312 5.28617187 0.0625 4.4375 C0.05347656 3.61121094 0.04445312 2.78492188 0.03515625 1.93359375 C0.02355469 1.29550781 0.01195312 0.65742188 0 0 Z " fill="#92C2C3" transform="translate(176,269)"/>
<path d="M0 0 C12 0 12 0 14.921875 2.1171875 C15.52515625 3.02726563 16.1284375 3.93734375 16.75 4.875 C17.38421875 5.77992188 18.0184375 6.68484375 18.671875 7.6171875 C20 10 20 10 20 12 C19.34 12 18.68 12 18 12 C16.64443416 9.73309092 15.42482409 7.4160445 14.21875 5.06640625 C11.27710003 1.90872097 11.27710003 1.90872097 2 2 C1.67 21.47 1.34 40.94 1 61 C4.3 61 7.6 61 11 61 C11 61.33 11 61.66 11 62 C7.37 62 3.74 62 0 62 C0 41.54 0 21.08 0 0 Z " fill="#89B5B8" transform="translate(250,219)"/>
<path d="M0 0 C0.98120464 3.05263664 0.98120464 4.94736336 0 8 C1.98 8 3.96 8 6 8 C6.33 7.34 6.66 6.68 7 6 C7.66666667 4.66666667 8.33333333 3.33333333 9 2 C9.66 2 10.32 2 11 2 C10.52343588 3.79236067 10.04366502 5.58386897 9.5625 7.375 C9.29566406 8.37273437 9.02882813 9.37046875 8.75390625 10.3984375 C8 13 8 13 7 15 C6.34 15 5.68 15 5 15 C5 14.34 5 13.68 5 13 C0.2102679 12.76571687 0.2102679 12.76571687 -4 15 C-5.22844823 17.4060889 -5.22844823 17.4060889 -6.1875 20.125 C-6.70376953 21.49011719 -6.70376953 21.49011719 -7.23046875 22.8828125 C-7.48441406 23.58148438 -7.73835938 24.28015625 -8 25 C-9.18484071 21.44547786 -8.76901229 20.76152109 -7.3828125 17.40234375 C-7.02316406 16.51869141 -6.66351563 15.63503906 -6.29296875 14.72460938 C-5.90753906 13.80486328 -5.52210938 12.88511719 -5.125 11.9375 C-4.74730469 11.01388672 -4.36960937 10.09027344 -3.98046875 9.13867188 C-1.27889031 2.55778061 -1.27889031 2.55778061 0 0 Z " fill="#87BFC0" transform="translate(445,240)"/>
<path d="M0 0 C1.51400391 0.01740234 1.51400391 0.01740234 3.05859375 0.03515625 C4.07050781 0.04417969 5.08242187 0.05320313 6.125 0.0625 C7.29869141 0.07990234 7.29869141 0.07990234 8.49609375 0.09765625 C10.16514703 5.17078658 10.78632816 9.6775566 10.68359375 15.03515625 C10.67392578 16.08413086 10.67392578 16.08413086 10.6640625 17.15429688 C10.59364342 21.87677609 10.27191049 26.44275582 9.49609375 31.09765625 C9.16609375 31.09765625 8.83609375 31.09765625 8.49609375 31.09765625 C8.16609375 22.84765625 7.83609375 14.59765625 7.49609375 6.09765625 C3.6598995 5.13860769 2.17177839 5.17873509 -1.50390625 6.09765625 C-1.50390625 4.77765625 -1.50390625 3.45765625 -1.50390625 2.09765625 C-2.16390625 1.76765625 -2.82390625 1.43765625 -3.50390625 1.09765625 C-2.50390625 0.09765625 -2.50390625 0.09765625 0 0 Z " fill="#6D696E" transform="translate(83.50390625,217.90234375)"/>
<path d="M0 0 C0.33 0 0.66 0 1 0 C1 2.97 1 5.94 1 9 C-13.19 9 -27.38 9 -42 9 C-38.11506838 6.41004559 -34.89432764 6.74774458 -30.39453125 6.8046875 C-29.55532639 6.8075174 -28.71612152 6.81034729 -27.85148621 6.81326294 C-25.17167897 6.82445615 -22.49220619 6.84955899 -19.8125 6.875 C-17.99544754 6.88503092 -16.17838983 6.89415657 -14.36132812 6.90234375 C-9.90742325 6.92439266 -5.45376833 6.95891649 -1 7 C-0.67 4.69 -0.34 2.38 0 0 Z " fill="#414044" transform="translate(122,272)"/>
<path d="M0 0 C1.32 1.32 2.64 2.64 4 4 C3.76977539 5.77441406 3.76977539 5.77441406 3 8 C2.8501218 10.54276118 2.74424653 13.0646265 2.68359375 15.609375 C2.66281265 16.33618469 2.64203156 17.06299438 2.62062073 17.81182861 C2.55544488 20.12445991 2.4963896 22.43720093 2.4375 24.75 C2.39428434 26.32162575 2.35066908 27.89324056 2.30664062 29.46484375 C2.19979644 33.30978453 2.09843976 37.15483524 2 41 C1.01 41.495 1.01 41.495 0 42 C0 28.14 0 14.28 0 0 Z " fill="#87B7BA" transform="translate(261,236)"/>
<path d="M0 0 C7 0 7 0 11 2 C7.7 2 4.4 2 1 2 C1 14.87 1 27.74 1 41 C0.01 40.67 -0.98 40.34 -2 40 C-2.6875 37.9375 -2.6875 37.9375 -3 36 C-2.34 36.33 -1.68 36.66 -1 37 C-0.67 24.79 -0.34 12.58 0 0 Z " fill="#88B4B7" transform="translate(290,219)"/>
<path d="M0 0 C2.31 0.33 4.62 0.66 7 1 C7.09152344 1.62519531 7.18304688 2.25039063 7.27734375 2.89453125 C7.63505859 3.93673828 7.63505859 3.93673828 8 5 C15.9299509 8.75629253 24.37674231 8.69316016 33 9 C33 9.33 33 9.66 33 10 C21.53482612 10.47882397 11.80294748 10.80260146 2.375 3.3125 C1.59125 2.549375 0.8075 1.78625 0 1 C0 0.67 0 0.34 0 0 Z " fill="#8FBDBD" transform="translate(319,272)"/>
<path d="M0 0 C0.66 0.33 1.32 0.66 2 1 C2 2.32 2 3.64 2 5 C10.58 5 19.16 5 28 5 C28 5.33 28 5.66 28 6 C18.43 6.33 8.86 6.66 -1 7 C-0.67 4.69 -0.34 2.38 0 0 Z " fill="#9DC2C8" transform="translate(144,238)"/>
<path d="M0 0 C5.61 0 11.22 0 17 0 C17 0.66 17 1.32 17 2 C15.68 1.67 14.36 1.34 13 1 C13 1.66 13 2.32 13 3 C8.38 3 3.76 3 -1 3 C-0.67 2.01 -0.34 1.02 0 0 Z " fill="#515156" transform="translate(106,269)"/>
<path d="M0 0 C0.33 0 0.66 0 1 0 C1.02688151 1.64574566 1.04634123 3.29161413 1.0625 4.9375 C1.07410156 5.85402344 1.08570313 6.77054688 1.09765625 7.71484375 C1 10 1 10 0 11 C-2.69654854 11.07319621 -5.36691458 11.09242537 -8.0625 11.0625 C-9.20041992 11.05573242 -9.20041992 11.05573242 -10.36132812 11.04882812 C-12.24091871 11.0370068 -14.12046899 11.01907078 -16 11 C-16 10.34 -16 9.68 -16 9 C-7.42857143 8.85714286 -7.42857143 8.85714286 -4 10 C-3.67 9.34 -3.34 8.68 -3 8 C-2.34 8.33 -1.68 8.66 -1 9 C-0.67 6.03 -0.34 3.06 0 0 Z " fill="#98C1C5" transform="translate(173,244)"/>
<path d="M0 0 C0.66 0.33 1.32 0.66 2 1 C2 1.66 2 2.32 2 3 C2.99 3 3.98 3 5 3 C4.67 4.32 4.34 5.64 4 7 C-0.455 7.495 -0.455 7.495 -5 8 C-5 6.68 -5 5.36 -5 4 C-4.360625 3.71125 -3.72125 3.4225 -3.0625 3.125 C-0.84793921 2.17176549 -0.84793921 2.17176549 0 0 Z " fill="#4B4A51" transform="translate(236,272)"/>
<path d="M0 0 C-0.66 0.66 -1.32 1.32 -2 2 C-1.01 2.33 -0.02 2.66 1 3 C0 6 0 6 -2.0625 7.1875 C-2.701875 7.455625 -3.34125 7.72375 -4 8 C-4 6.35 -4 4.7 -4 3 C-5.65 3 -7.3 3 -9 3 C-9 2.01 -9 1.02 -9 0 C-3.375 -1.125 -3.375 -1.125 0 0 Z " fill="#A6D0D2" transform="translate(142,252)"/>
<path d="M0 0 C0.99 0.33 1.98 0.66 3 1 C3.84375 2.71484375 3.84375 2.71484375 4.5 4.9375 C4.74363281 5.73929688 4.98726563 6.54109375 5.23828125 7.3671875 C5.48964844 8.23601562 5.74101562 9.10484375 6 10 C6.56242073 11.85419071 7.12491847 13.70835807 7.6875 15.5625 C8.12639904 17.04125215 8.56442084 18.52026655 9 20 C8.34 20 7.68 20 7 20 C6.1605118 17.89828133 5.32860344 15.79353375 4.5 13.6875 C3.80390625 11.92986328 3.80390625 11.92986328 3.09375 10.13671875 C2 7 2 7 2 4 C1.01 4.33 0.02 4.66 -1 5 C-0.67 3.35 -0.34 1.7 0 0 Z " fill="#8CBABC" transform="translate(457,235)"/>
<path d="M0 0 C3.96 0 7.92 0 12 0 C12.33 0.66 12.66 1.32 13 2 C12.0625 4.625 12.0625 4.625 11 7 C10.64808594 6.03320312 10.64808594 6.03320312 10.2890625 5.046875 C9.18838927 2.7922092 9.18838927 2.7922092 6.8359375 2.390625 C5.61777344 2.32101563 5.61777344 2.32101563 4.375 2.25 C3.14910156 2.16492188 3.14910156 2.16492188 1.8984375 2.078125 C1.27195312 2.05234375 0.64546875 2.0265625 0 2 C-0.33 2.66 -0.66 3.32 -1 4 C-0.67 2.68 -0.34 1.36 0 0 Z " fill="#8DB5B6" transform="translate(423,219)"/>
<path d="M0 0 C3.375 -0.125 3.375 -0.125 7 0 C7.66 0.66 8.32 1.32 9 2 C5.52674819 3.1577506 2.63932552 3.06866652 -1 3 C-1.33 4.65 -1.66 6.3 -2 8 C-2.66 7.34 -3.32 6.68 -4 6 C-4 5.01 -4 4.02 -4 3 C-2.68 2.67 -1.36 2.34 0 2 C0 1.34 0 0.68 0 0 Z " fill="#96C2C6" transform="translate(147,252)"/>
<path d="M0 0 C2.125 2.0625 2.125 2.0625 4 5 C3.375 8.75 3.375 8.75 2 12 C1.01 12.495 1.01 12.495 0 13 C0 11.35 0 9.7 0 8 C-0.66 8 -1.32 8 -2 8 C-1.125 2.25 -1.125 2.25 0 0 Z " fill="#414046" transform="translate(18,236)"/>
<path d="M0 0 C1.23556641 0.01740234 1.23556641 0.01740234 2.49609375 0.03515625 C3.32238281 0.04417969 4.14867187 0.05320313 5 0.0625 C5.63808594 0.07410156 6.27617187 0.08570313 6.93359375 0.09765625 C5.94359375 0.75765625 4.95359375 1.41765625 3.93359375 2.09765625 C4.92359375 2.42765625 5.91359375 2.75765625 6.93359375 3.09765625 C6.60359375 3.75765625 6.27359375 4.41765625 5.93359375 5.09765625 C3.29359375 5.09765625 0.65359375 5.09765625 -2.06640625 5.09765625 C-2.62890625 3.16015625 -2.62890625 3.16015625 -3.06640625 1.09765625 C-2.06640625 0.09765625 -2.06640625 0.09765625 0 0 Z " fill="#818185" transform="translate(211.06640625,217.90234375)"/>
<path d="M0 0 C4.29 0 8.58 0 13 0 C16.125 7.625 16.125 7.625 15 11 C12 4.375 12 4.375 12 1 C11.31292969 1.0721875 10.62585938 1.144375 9.91796875 1.21875 C8.56638672 1.35796875 8.56638672 1.35796875 7.1875 1.5 C6.29417969 1.5928125 5.40085937 1.685625 4.48046875 1.78125 C2 2 2 2 -1 2 C-0.67 1.34 -0.34 0.68 0 0 Z " fill="#8EB0B1" transform="translate(379,219)"/>
<path d="M0 0 C1.65 0.33 3.3 0.66 5 1 C5.33 3.64 5.66 6.28 6 9 C3.56070254 7.07423885 1.19909405 5.19909405 -1 3 C-0.67 2.01 -0.34 1.02 0 0 Z " fill="#68656A" transform="translate(88,218)"/>
<path d="M0 0 C0.33 0.99 0.66 1.98 1 3 C-3.29 3 -7.58 3 -12 3 C-12 2.34 -12 1.68 -12 1 C-7.93631321 0.22596442 -4.13574827 -0.0984702 0 0 Z " fill="#3F3E42" transform="translate(241,278)"/>
<path d="M0 0 C1.13116179 3.39348537 0.96678184 4.61626354 0 8 C-1.46870314 10.7458363 -2.79728436 12.79728436 -5 15 C-3.97137215 9.55432314 -2.75385216 4.88182883 0 0 Z " fill="#8CB9BD" transform="translate(435,266)"/>
<path d="M0 0 C0.66 1.32 1.32 2.64 2 4 C1.01 4.495 1.01 4.495 0 5 C0 4.34 0 3.68 0 3 C-3.3 3.33 -6.6 3.66 -10 4 C-9.67 3.01 -9.34 2.02 -9 1 C-4.545 0.505 -4.545 0.505 0 0 Z " fill="#93C5C7" transform="translate(463,219)"/>
<path d="M0 0 C3.3 0 6.6 0 10 0 C6.09987886 2.92509086 4.61691161 3.47535095 0 4 C0 2.68 0 1.36 0 0 Z " fill="#8AC1C2" transform="translate(338,218)"/>
<path d="M0 0 C2 1 2 1 2.6328125 2.84765625 C2.79523438 3.57855469 2.95765625 4.30945313 3.125 5.0625 C3.29257812 5.79597656 3.46015625 6.52945313 3.6328125 7.28515625 C3.75398438 7.85105469 3.87515625 8.41695312 4 9 C2.35 8.67 0.7 8.34 -1 8 C-0.67 5.36 -0.34 2.72 0 0 Z " fill="#88BEBE" transform="translate(395,231)"/>
<path d="M0 0 C0.66 0.33 1.32 0.66 2 1 C2 4.63 2 8.26 2 12 C-0.64 12 -3.28 12 -6 12 C-6 11.67 -6 11.34 -6 11 C-4.02 10.34 -2.04 9.68 0 9 C0 6.03 0 3.06 0 0 Z " fill="#8DB6B5" transform="translate(176,269)"/>
<path d="M0 0 C0.99 0 1.98 0 3 0 C2.67 1.65 2.34 3.3 2 5 C-0.64 4.67 -3.28 4.34 -6 4 C-6 3.67 -6 3.34 -6 3 C-4.02 3 -2.04 3 0 3 C0 2.01 0 1.02 0 0 Z " fill="#92C2C3" transform="translate(441,276)"/>
<path d="M0 0 C1.65 1.65 3.3 3.3 5 5 C2.64561267 6.42944945 1.51967567 7.08661261 -1.25 6.625 C-1.8275 6.41875 -2.405 6.2125 -3 6 C-1.68 5.67 -0.36 5.34 1 5 C0.67 3.35 0.34 1.7 0 0 Z " fill="#A6D1D1" transform="translate(483,275)"/>
<path d="M0 0 C3.13506611 0.33589994 4.025249 1.02665172 6.25 3.375 C8 6 8 6 8 9 C7.34 9 6.68 9 6 9 C4.02 5.535 4.02 5.535 2 2 C1.34 2 0.68 2 0 2 C0 1.34 0 0.68 0 0 Z " fill="#414043" transform="translate(63,267)"/>
<path d="M0 0 C0.99 0.66 1.98 1.32 3 2 C3 2.66 3 3.32 3 4 C1.35 4.66 -0.3 5.32 -2 6 C-2 4.35 -2 2.7 -2 1 C-1.34 0.67 -0.68 0.34 0 0 Z " fill="#9FDBE0" transform="translate(139,246)"/>
<path d="M0 0 C1.37478516 0.01740234 1.37478516 0.01740234 2.77734375 0.03515625 C3.69644531 0.04417969 4.61554688 0.05320313 5.5625 0.0625 C6.27277344 0.07410156 6.98304688 0.08570313 7.71484375 0.09765625 C7.71484375 0.42765625 7.71484375 0.75765625 7.71484375 1.09765625 C6.64234375 1.22140625 5.56984375 1.34515625 4.46484375 1.47265625 C1.3362076 1.99409561 -0.61996049 2.49853879 -3.28515625 4.09765625 C-3.28515625 0.14039129 -3.28515625 0.14039129 0 0 Z " fill="#8DC3C4" transform="translate(383.28515625,219.90234375)"/>
<path d="M0 0 C0.66 0.99 1.32 1.98 2 3 C0.6875 4.5 0.6875 4.5 -1 6 C-1.99 6 -2.98 6 -4 6 C-3.67 4.68 -3.34 3.36 -3 2 C-2.01 2 -1.02 2 0 2 C0 1.34 0 0.68 0 0 Z " fill="#545458" transform="translate(198,250)"/>
<path d="M0 0 C0.33 0.99 0.66 1.98 1 3 C-2.28696233 3.79953138 -3.71023192 4.09658936 -7 3 C-4.69 2.01 -2.38 1.02 0 0 Z " fill="#545257" transform="translate(240,275)"/>
<path d="M0 0 C0.33 0.99 0.66 1.98 1 3 C-0.40445835 5.2636564 -2.1967913 7.0208685 -4 9 C-4.33 8.34 -4.66 7.68 -5 7 C-4.0625 4.875 -4.0625 4.875 -3 3 C-2.34 3.33 -1.68 3.66 -1 4 C-0.67 2.68 -0.34 1.36 0 0 Z " fill="#8EB9BB" transform="translate(373,265)"/>
<path d="M0 0 C0.33 0 0.66 0 1 0 C1.125 5.75 1.125 5.75 0 8 C-0.99 8 -1.98 8 -3 8 C-1.125 1.125 -1.125 1.125 0 0 Z " fill="#8BC0C0" transform="translate(366,254)"/>
<path d="M0 0 C1.3921875 0.2784375 1.3921875 0.2784375 2.8125 0.5625 C6.01343771 1.24123881 6.01343771 1.24123881 9 0 C8.34 1.32 7.68 2.64 7 4 C4.97954558 3.39816251 2.97888961 2.72693904 1 2 C0.67 1.34 0.34 0.68 0 0 Z " fill="#39393D" transform="translate(57,230)"/>
<path d="M0 0 C0.33 1.32 0.66 2.64 1 4 C-2.63 3.67 -6.26 3.34 -10 3 C-10 2.67 -10 2.34 -10 2 C-6.7 1.34 -3.4 0.68 0 0 Z " fill="#91C3C6" transform="translate(262,277)"/>
<path d="M0 0 C0.33 0 0.66 0 1 0 C1 2.97 1 5.94 1 9 C0.01 8.67 -0.98 8.34 -2 8 C-2.6875 5.9375 -2.6875 5.9375 -3 4 C-2.01 4.495 -2.01 4.495 -1 5 C-0.67 3.35 -0.34 1.7 0 0 Z " fill="#7DBBC0" transform="translate(290,251)"/>
<path d="M0 0 C0.99 0.33 1.98 0.66 3 1 C3 2.98 3 4.96 3 7 C2.67 6.01 2.34 5.02 2 4 C1.01 4.33 0.02 4.66 -1 5 C-0.67 3.35 -0.34 1.7 0 0 Z " fill="#84C0C0" transform="translate(457,235)"/>
<path d="" fill="#FFFFFF" transform="translate(0,0)"/>
</svg>
