<?xml version="1.0" encoding="UTF-8"?>
<svg version="1.1" xmlns="http://www.w3.org/2000/svg" width="500" height="500">
<path d="M0 0 C6.38010013 5.92051665 9.5181579 13.06984247 9.8515625 21.71875 C9.84769531 23.54019531 9.84769531 23.54019531 9.84375 25.3984375 C9.84632813 26.61789063 9.84890625 27.83734375 9.8515625 29.09375 C9.71875 32.2734375 9.71875 32.2734375 8.71875 35.2734375 C9.43417969 35.22703125 10.14960938 35.180625 10.88671875 35.1328125 C22.78926233 34.7016725 34.27779762 37.76514385 43.71875 45.2734375 C45.48703524 47.24777293 47.00476348 49.23167283 48.46484375 51.44140625 C51.46630881 55.82672436 54.88922 57.39994563 59.78125 59.2734375 C60.4508374 59.53688965 61.1204248 59.8003418 61.81030273 60.07177734 C65.59248138 61.5366961 69.36983905 62.81325946 73.28125 63.8984375 C78.73253245 65.4403976 82.49744238 67.44147608 85.71875 72.2734375 C87.26763532 77.51581858 86.27464685 80.51418129 83.71875 85.2734375 C80.74254191 89.20628391 77.43146995 90.3720112 72.71875 91.2734375 C69.31833211 91.55422904 65.94165643 91.55807162 62.53125 91.5234375 C61.57379883 91.51739502 60.61634766 91.51135254 59.62988281 91.50512695 C47.44746938 91.33987718 34.62863558 91.09556556 23.0390625 87.00390625 C18.38862055 85.53987823 13.52822284 85.00045084 8.71875 84.2734375 C13.00875 85.5934375 17.29875 86.9134375 21.71875 88.2734375 C21.38875 89.5934375 21.05875 90.9134375 20.71875 92.2734375 C19.64496094 92.44359375 18.57117188 92.61375 17.46484375 92.7890625 C16.02852477 93.03314285 14.59233338 93.27797479 13.15625 93.5234375 C12.09954102 93.68779297 12.09954102 93.68779297 11.02148438 93.85546875 C5.84774305 94.76146954 2.1527554 96.45338676 -2.28125 99.2734375 C-1.22292969 98.9125 -0.16460937 98.5515625 0.92578125 98.1796875 C14.53670623 93.90188111 32.85728706 90.65294985 46.71875 95.2734375 C50.71374603 95.560776 54.71458674 95.55129941 58.71875 95.5859375 C59.80542969 95.61494141 60.89210938 95.64394531 62.01171875 95.67382812 C71.27800935 95.74578857 78.53361707 93.47587945 86.71875 89.2734375 C86.71875 95.3807993 84.40745172 98.51695362 80.60546875 103.16015625 C71.30412312 109.96939574 59.85064522 109.97823336 48.78515625 110.40625 C35.55661638 111.10328646 24.98763314 114.84977333 15.03125 123.6484375 C8.05957985 131.56222524 3.62698854 138.55622272 2.71875 149.2734375 C2.65429688 150.00433594 2.58984375 150.73523438 2.5234375 151.48828125 C1.9357992 164.20085651 6.01252338 176.86252513 9.40380859 188.97387695 C12.60792305 200.43461985 15.07618014 211.37983311 15.71875 223.2734375 C15.77675781 224.34207031 15.83476562 225.41070312 15.89453125 226.51171875 C16.57587644 253.58622508 5.4851825 282.34457808 -8.28125 305.2734375 C-8.94125 305.2734375 -9.60125 305.2734375 -10.28125 305.2734375 C-10.46107422 306.15708984 -10.46107422 306.15708984 -10.64453125 307.05859375 C-12.43600124 313.29027156 -17.3663804 317.40428484 -22.28125 321.2734375 C-22.879375 321.9128125 -23.4775 322.5521875 -24.09375 323.2109375 C-31.60610963 330.29401944 -40.7351182 333.80586963 -50.28125 337.2734375 C-51.52841797 337.7375 -51.52841797 337.7375 -52.80078125 338.2109375 C-91.57917677 351.25025788 -146.03355196 346.74867233 -184.28125 335.2734375 C-185.41175781 334.9434375 -186.54226562 334.6134375 -187.70703125 334.2734375 C-194.13356801 332.1863349 -199.81878926 329.30291871 -203.44140625 323.375 C-205.68434569 317.76243527 -204.71350869 311.71201166 -202.59375 306.2109375 C-200.80072408 302.09600751 -198.61327209 298.31446793 -196.13671875 294.57421875 C-194.89070982 291.22308056 -195.60140504 288.75025329 -196.28125 285.2734375 C-196.48363281 284.11585938 -196.68601562 282.95828125 -196.89453125 281.765625 C-199.20722881 269.80161414 -202.59703849 258.35581979 -207.1796875 247.05859375 C-209.11924838 242.2717575 -210.91401044 237.47095058 -212.59375 232.5859375 C-215.09310867 225.51719917 -218.16315893 218.83584794 -221.41259766 212.09179688 C-222.77920188 209.23106944 -224.08951896 206.34488312 -225.40625 203.4609375 C-229.79884382 193.96876246 -234.33131331 184.90794432 -240.28125 176.2734375 C-240.80332031 175.50386719 -241.32539063 174.73429688 -241.86328125 173.94140625 C-246.55768108 167.78500355 -251.98596849 166.21500122 -259.28125 164.2734375 C-265.02643519 162.65565972 -265.02643519 162.65565972 -267.28125 159.2734375 C-267.53803556 156.48089452 -267.69839298 153.75866558 -267.78125 150.9609375 C-268.06699614 143.849592 -268.77753415 137.01780084 -269.9765625 129.99609375 C-270.28125 127.2734375 -270.28125 127.2734375 -269.28125 124.2734375 C-266.953125 123.28125 -266.953125 123.28125 -264.03125 122.3984375 C-259.32414349 120.79277082 -256.35638796 119.34055544 -253.28125 115.2734375 C-252.03410597 112.86391727 -252.03410597 112.86391727 -251.28125 110.2734375 C-250.91 109.1803125 -250.53875 108.0871875 -250.15625 106.9609375 C-249.8675 106.0740625 -249.57875 105.1871875 -249.28125 104.2734375 C-242.10111379 103.31608601 -237.13202544 106.30242927 -231.28125 110.2734375 C-225.7701732 114.75520813 -220.40382392 119.44826925 -216.28125 125.2734375 C-216.28125 126.2634375 -216.28125 127.2534375 -216.28125 128.2734375 C-215.62125 128.2734375 -214.96125 128.2734375 -214.28125 128.2734375 C-213.62125 130.2534375 -212.96125 132.2334375 -212.28125 134.2734375 C-211.62125 134.2734375 -210.96125 134.2734375 -210.28125 134.2734375 C-210.013125 134.881875 -209.745 135.4903125 -209.46875 136.1171875 C-197.76553972 162.29542103 -186.12963169 178.63547909 -159.28125 191.2734375 C-159.28125 191.9334375 -159.28125 192.5934375 -159.28125 193.2734375 C-157.97220703 193.45132813 -157.97220703 193.45132813 -156.63671875 193.6328125 C-153.34534491 194.26120052 -150.66347176 195.20006496 -147.59375 196.5234375 C-146.66175781 196.92046875 -145.72976562 197.3175 -144.76953125 197.7265625 C-141.8849713 199.00571786 -139.013863 200.30838995 -136.14453125 201.62109375 C-132.22961363 203.406543 -128.29632223 205.13428478 -124.3359375 206.81640625 C-103.76025118 215.58793802 -85.81378919 226.24666518 -67.96875 239.7109375 C-67.39866211 240.13632812 -66.82857422 240.56171875 -66.24121094 241 C-64.88245515 242.04247185 -63.57599483 243.15245548 -62.28125 244.2734375 C-62.28125 244.9334375 -62.28125 245.5934375 -62.28125 246.2734375 C-61.70890625 246.5209375 -61.1365625 246.7684375 -60.546875 247.0234375 C-57.93114389 248.46659949 -56.13351544 250.15559972 -54.03125 252.2734375 C-53.32484375 252.9746875 -52.6184375 253.6759375 -51.890625 254.3984375 C-50.28125 256.2734375 -50.28125 256.2734375 -50.28125 258.2734375 C-49.62125 258.2734375 -48.96125 258.2734375 -48.28125 258.2734375 C-47.62125 259.9234375 -46.96125 261.5734375 -46.28125 263.2734375 C-45.62125 263.2734375 -44.96125 263.2734375 -44.28125 263.2734375 C-43.19970703 264.65942383 -43.19970703 264.65942383 -42.0390625 266.60546875 C-41.61415527 267.31582275 -41.18924805 268.02617676 -40.75146484 268.75805664 C-33.0250276 282.12857917 -29.58304989 291.81606286 -30.28125 307.2734375 C-29.62125 307.2734375 -28.96125 307.2734375 -28.28125 307.2734375 C-27.95125 306.2834375 -27.62125 305.2934375 -27.28125 304.2734375 C-24.84375 301.5859375 -24.84375 301.5859375 -22.28125 299.2734375 C-21.62125 299.2734375 -20.96125 299.2734375 -20.28125 299.2734375 C-19.9925 298.5103125 -19.70375 297.7471875 -19.40625 296.9609375 C-18.28125 294.2734375 -18.28125 294.2734375 -16.28125 291.2734375 C-14.5432268 278.34359827 -25.74682958 263.55432748 -33.11328125 253.86328125 C-35.12624321 251.29447181 -37.18744843 248.77672794 -39.28125 246.2734375 C-39.95929688 245.45875 -40.63734375 244.6440625 -41.3359375 243.8046875 C-55.42007123 227.50217373 -73.66168743 215.74501975 -92.28125 205.2734375 C-92.91144043 204.91507813 -93.54163086 204.55671875 -94.19091797 204.1875 C-106.92729936 196.98116669 -120.29688801 191.52860574 -133.96484375 186.34765625 C-134.64209503 186.08975311 -135.31934631 185.83184998 -136.01712036 185.56613159 C-139.39568558 184.27956463 -142.77734187 183.00347072 -146.16796875 181.74902344 C-167.5070682 173.74116476 -167.5070682 173.74116476 -174.28125 165.2734375 C-174.28125 164.6134375 -174.28125 163.9534375 -174.28125 163.2734375 C-174.94125 163.2734375 -175.60125 163.2734375 -176.28125 163.2734375 C-176.93364158 161.88065733 -177.57785552 160.48404538 -178.21875 159.0859375 C-178.57839844 158.30863281 -178.93804687 157.53132812 -179.30859375 156.73046875 C-185.52974399 141.01519365 -182.29696039 115.28215896 -178.28125 99.2734375 C-178.08257324 98.45407715 -177.88389648 97.6347168 -177.67919922 96.79052734 C-173.26754987 78.98861347 -166.68440642 62.4598634 -156.28125 47.2734375 C-155.86423828 46.66322754 -155.44722656 46.05301758 -155.01757812 45.42431641 C-137.88536456 20.67709499 -113.36540821 -1.79837151 -83.28125 -8.7265625 C-81.58162109 -9.12294922 -81.58162109 -9.12294922 -79.84765625 -9.52734375 C-53.86606254 -15.32852499 -22.37548095 -16.93486743 0 0 Z " fill="#83C9CD" transform="translate(377.28125,80.7265625)"/>
<path d="M0 0 C7.18013621 -0.95735149 12.14922456 2.02899177 18 6 C23.5110768 10.48177063 28.87742608 15.17483175 33 21 C33 21.99 33 22.98 33 24 C33.66 24 34.32 24 35 24 C35.66 25.98 36.32 27.96 37 30 C37.66 30 38.32 30 39 30 C39.268125 30.6084375 39.53625 31.216875 39.8125 31.84375 C51.51571028 58.02198353 63.15161831 74.36204159 90 87 C90 87.66 90 88.32 90 89 C91.30904297 89.17789063 91.30904297 89.17789063 92.64453125 89.359375 C95.93590509 89.98776302 98.61777824 90.92662746 101.6875 92.25 C102.61949219 92.64703125 103.55148438 93.0440625 104.51171875 93.453125 C107.3962787 94.73228036 110.267387 96.03495245 113.13671875 97.34765625 C117.05163637 99.1331055 120.98492777 100.86084728 124.9453125 102.54296875 C145.52099882 111.31450052 163.46746081 121.97322768 181.3125 135.4375 C181.88258789 135.86289062 182.45267578 136.28828125 183.04003906 136.7265625 C184.39879485 137.76903435 185.70525517 138.87901798 187 140 C187 140.66 187 141.32 187 142 C187.57234375 142.2475 188.1446875 142.495 188.734375 142.75 C191.35010611 144.19316199 193.14773456 145.88216222 195.25 148 C196.30960937 149.051875 196.30960937 149.051875 197.390625 150.125 C199 152 199 152 199 154 C199.66 154 200.32 154 201 154 C201.99 156.475 201.99 156.475 203 159 C203.66 159 204.32 159 205 159 C206.08154297 160.38598633 206.08154297 160.38598633 207.2421875 162.33203125 C207.66709473 163.04238525 208.09200195 163.75273926 208.52978516 164.48461914 C216.2562224 177.85514167 219.69820011 187.54262536 219 203 C219.66 203 220.32 203 221 203 C221.33 202.01 221.66 201.02 222 200 C224.4375 197.3125 224.4375 197.3125 227 195 C227.66 195 228.32 195 229 195 C229.28875 194.236875 229.5775 193.47375 229.875 192.6875 C231 190 231 190 233 187 C233.99 186.67 234.98 186.34 236 186 C239.06648736 181.91135019 241.36132773 177.51195708 243.65625 172.953125 C245.19928176 170.71034628 246.50070873 169.99548042 249 169 C251.73132058 173.58861858 252.3072944 175.84412865 251 181 C249.82938279 183.78522495 248.46446676 186.45009706 247.0625 189.125 C246.52206055 190.17880859 246.52206055 190.17880859 245.97070312 191.25390625 C245.28336219 192.59314513 244.59295706 193.93081755 243.89892578 195.26660156 C242.91284513 197.16806071 241.94993425 199.0802376 241 201 C240.34 201 239.68 201 239 201 C238.88011719 201.58910156 238.76023437 202.17820312 238.63671875 202.78515625 C236.84524876 209.01683406 231.9148696 213.13084734 227 217 C226.401875 217.639375 225.80375 218.27875 225.1875 218.9375 C217.67514037 226.02058194 208.5461318 229.53243213 199 233 C198.16855469 233.309375 197.33710938 233.61875 196.48046875 233.9375 C157.70207323 246.97682038 103.24769804 242.47523483 65 231 C63.86949219 230.67 62.73898438 230.34 61.57421875 230 C55.14768199 227.9128974 49.46246074 225.02948121 45.83984375 219.1015625 C43.59690431 213.48899777 44.56774131 207.43857416 46.6875 201.9375 C48.48052592 197.82257001 50.66797791 194.04103043 53.14453125 190.30078125 C54.39054018 186.94964306 53.67984496 184.47681579 53 181 C52.79761719 179.84242188 52.59523438 178.68484375 52.38671875 177.4921875 C50.07402119 165.52817664 46.68421151 154.08238229 42.1015625 142.78515625 C40.16200162 137.99832 38.36723956 133.19751308 36.6875 128.3125 C34.18814133 121.24376167 31.11809107 114.56241044 27.86865234 107.81835938 C26.50204812 104.95763194 25.19173104 102.07144562 23.875 99.1875 C19.48240618 89.69532496 14.94993669 80.63450682 9 72 C8.47792969 71.23042969 7.95585937 70.46085937 7.41796875 69.66796875 C2.72356892 63.51156605 -2.70471849 61.94156372 -10 60 C-15.74518519 58.38222222 -15.74518519 58.38222222 -18 55 C-18.25678556 52.20745702 -18.41714298 49.48522808 -18.5 46.6875 C-18.78574614 39.5761545 -19.49628415 32.74436334 -20.6953125 25.72265625 C-21 23 -21 23 -20 20 C-17.671875 19.0078125 -17.671875 19.0078125 -14.75 18.125 C-10.04289349 16.51933332 -7.07513796 15.06711794 -4 11 C-2.75285597 8.59047977 -2.75285597 8.59047977 -2 6 C-1.62875 4.906875 -1.2575 3.81375 -0.875 2.6875 C-0.58625 1.800625 -0.2975 0.91375 0 0 Z " fill="#484850" transform="translate(128,185)"/>
<path d="M0 0 C2.45065581 -0.09702656 4.90008929 -0.16022823 7.35205078 -0.21386719 C8.12315186 -0.24375732 8.89425293 -0.27364746 9.6887207 -0.30444336 C13.2983838 -0.34165638 15.28201676 -0.24900558 18.17236328 2.00878906 C21.16234836 6.02799011 22.23967661 8.87613705 22.11376953 14.06738281 C21.29574272 18.36408928 18.31971868 20.89040199 14.91455078 23.47363281 C9.71964264 24.95789228 4.00820052 24.08568562 -1.25732422 23.33544922 C-20.73326509 20.6121938 -38.88687747 23.23753135 -57.69873047 28.28613281 C-58.41561035 28.47457764 -59.13249023 28.66302246 -59.87109375 28.85717773 C-61.82593444 29.37546863 -63.77435146 29.91781994 -65.72216797 30.46191406 C-69.59663705 31.15667584 -72.44614067 30.96623034 -76.27294922 30.09863281 C-79.42334701 27.54425623 -81.9185731 24.78191936 -82.77294922 20.72363281 C-82.1557402 17.48328547 -80.77460413 16.11880588 -78.17138672 14.15722656 C-75.50489912 12.67035797 -72.90920613 12.12181961 -69.90966797 11.65332031 C-67.52371714 11.15138695 -65.38653938 10.4714242 -63.08935547 9.66894531 C-58.29462187 8.03667459 -53.50005372 7.00515819 -48.52294922 6.09863281 C-47.62116943 5.93129639 -46.71938965 5.76395996 -45.7902832 5.59155273 C-30.60182368 2.82965578 -15.43140284 0.66963338 0 0 Z " fill="#494951" transform="translate(101.27294921875,176.9013671875)"/>
<path d="M0 0 C6.05392064 0.52748638 10.88012151 2.40394926 16.375 4.9375 C17.68513062 5.53594727 17.68513062 5.53594727 19.02172852 6.14648438 C35.29656811 13.7358031 50.00633423 23.6433454 64.3125 34.4375 C64.88258789 34.86289062 65.45267578 35.28828125 66.04003906 35.7265625 C67.39879485 36.76903435 68.70525517 37.87901798 70 39 C70 39.66 70 40.32 70 41 C71.485 41.495 71.485 41.495 73 42 C72.67 42.99 72.34 43.98 72 45 C70.0625 44.1875 70.0625 44.1875 68 43 C67.67 42.01 67.34 41.02 67 40 C66.13375 39.814375 66.13375 39.814375 65.25 39.625 C62.56472628 38.87909063 61.48996335 37.53224208 59.625 35.5390625 C55.47553718 31.60904242 50.43334906 27.81111635 45 26 C45 25.34 45 24.68 45 24 C44.195625 23.79375 43.39125 23.5875 42.5625 23.375 C38.65121982 21.86538309 35.64264349 19.85928235 32.24609375 17.4375 C29.8929266 15.93147302 27.60595612 14.99389954 25 14 C23.40832377 13.22524369 21.8250123 12.43309455 20.25 11.625 C16.23277037 9.5924731 12.17547963 7.71632858 8.05078125 5.9140625 C5.32173028 4.69768549 2.65821895 3.3631892 0 2 C0 1.34 0 0.68 0 0 Z " fill="#3B3B40" transform="translate(245,286)"/>
<path d="M0 0 C0.99 0.99 0.99 0.99 2 2 C1 4 1 4 -1.2734375 4.96484375 C-16.48968485 9.73668958 -32.10888683 11.51086767 -48 12 C-48.69206543 12.02723145 -49.38413086 12.05446289 -50.09716797 12.08251953 C-52.12730488 12.15806172 -54.15640251 12.20880178 -56.1875 12.25 C-57.35667969 12.27578125 -58.52585937 12.3015625 -59.73046875 12.328125 C-63.40709732 11.95914436 -65.81976281 10.83382417 -69 9 C-69 8.67 -69 8.34 -69 8 C-56.46 8 -43.92 8 -31 8 C-31 7.67 -31 7.34 -31 7 C-29.40285156 6.74476563 -29.40285156 6.74476563 -27.7734375 6.484375 C-18.28130945 4.91681723 -9.19712059 2.87136729 0 0 Z " fill="#414045" transform="translate(329,413)"/>
<path d="M0 0 C1.2895459 0.00080566 2.5790918 0.00161133 3.90771484 0.00244141 C26.88167972 0.15028648 26.88167972 0.15028648 32.9375 4.1875 C28.31057374 6.50096313 21.89982968 5.12848177 16.95166016 4.42456055 C2.52300375 2.4040217 -12.65670509 2.36835202 -26.69921875 6.5546875 C-29.93401418 7.42086413 -32.73789044 7.41417792 -36.0625 7.1875 C-36.3925 6.5275 -36.7225 5.8675 -37.0625 5.1875 C-34.73090696 4.53477539 -32.39752204 3.89024798 -30.0625 3.25 C-29.41410156 3.06759766 -28.76570313 2.88519531 -28.09765625 2.69726562 C-18.7402774 0.14946445 -9.65674218 -0.00619419 0 0 Z " fill="#48474C" transform="translate(83.0625,195.8125)"/>
<path d="M0 0 C0.845625 0.144375 1.69125 0.28875 2.5625 0.4375 C8.42380188 1.39662213 14.20960687 2.14353419 20.140625 2.5 C21.47135772 2.58327665 22.80208678 2.66661165 24.1328125 2.75 C26.20207253 2.87630676 28.27140402 3.00127964 30.34082031 3.125 C32.3576299 3.24659756 34.37413415 3.37322651 36.390625 3.5 C38.1854834 3.60828125 38.1854834 3.60828125 40.01660156 3.71875 C43 4 43 4 46 5 C46 5.66 46 6.32 46 7 C31.11224316 7.4791054 16.74149602 6.03654715 2 4 C2 3.34 2 2.68 2 2 C1.34 1.34 0.68 0.68 0 0 Z " fill="#36363A" transform="translate(213,417)"/>
<path d="M0 0 C0.95712891 0.10828125 0.95712891 0.10828125 1.93359375 0.21875 C2.75988281 0.3115625 3.58617188 0.404375 4.4375 0.5 C5.67306641 0.63921875 5.67306641 0.63921875 6.93359375 0.78125 C9.8362439 1.08852487 9.95293141 1.01568953 13 0 C18.67920184 3.06676899 18.67920184 3.06676899 19.6875 6 C19.790625 6.66 19.89375 7.32 20 8 C20.474375 8.61875 20.94875 9.2375 21.4375 9.875 C23 12 23 12 23.8125 14.6875 C24.93319272 17.81364286 26.1668043 19.81443109 28.0625 22.5 C30.49600781 25.99927765 31.77668226 28.64530406 32 33 C32.66 33 33.32 33 34 33 C34.66 35.97 35.32 38.94 36 42 C33.31939246 38.71383353 31.5760657 35.25602524 29.75 31.4375 C26.59111994 24.99008435 23.12353778 18.892098 19 13 C18.22076172 11.85337891 18.22076172 11.85337891 17.42578125 10.68359375 C12.78120617 4.57704589 7.30093673 2.82223708 0 1 C0 0.67 0 0.34 0 0 Z " fill="#616165" transform="translate(118,244)"/>
<path d="M0 0 C0.66 0 1.32 0 2 0 C4.81552726 6.78743178 5.3689719 12.68889006 5 20 C5.66 20 6.32 20 7 20 C7.33 19.01 7.66 18.02 8 17 C10.4375 14.3125 10.4375 14.3125 13 12 C13.66 12 14.32 12 15 12 C15.3403125 10.824375 15.3403125 10.824375 15.6875 9.625 C17 7 17 7 19.625 5.6875 C20.800625 5.3471875 20.800625 5.3471875 22 5 C20.33333333 8.33333333 18.66666667 11.66666667 17 15 C16.01 15 15.02 15 14 15 C13.34 16.32 12.68 17.64 12 19 C11.34 19 10.68 19 10 19 C10 19.66 10 20.32 10 21 C6.91190305 22.76462683 5.76687864 23 2 23 C2.01160156 22.38253906 2.02320313 21.76507813 2.03515625 21.12890625 C2.11161198 13.95298943 1.857529 6.96183137 0 0 Z " fill="#3B3B3F" transform="translate(342,368)"/>
<path d="M0 0 C1.22589844 0.01353516 1.22589844 0.01353516 2.4765625 0.02734375 C3.41628906 0.04474609 3.41628906 0.04474609 4.375 0.0625 C2.89 1.5475 2.89 1.5475 1.375 3.0625 C2.44427734 3.35253906 2.44427734 3.35253906 3.53515625 3.6484375 C8.82513328 5.08662775 14.10836033 6.54102632 19.375 8.0625 C19.045 9.3825 18.715 10.7025 18.375 12.0625 C12.435 12.5575 12.435 12.5575 6.375 13.0625 C6.375 11.0625 6.375 11.0625 8.375 9.0625 C6.81479133 8.41115075 5.25171421 7.76667036 3.6875 7.125 C2.81738281 6.76535156 1.94726562 6.40570313 1.05078125 6.03515625 C-1.50679265 5.1054688 -3.9471323 4.52087375 -6.625 4.0625 C-6.625 3.0725 -6.625 2.0825 -6.625 1.0625 C-4.21954362 -0.14022819 -2.67503047 -0.03821472 0 0 Z " fill="#86BBBE" transform="translate(379.625,160.9375)"/>
<path d="M0 0 C0.99 0 1.98 0 3 0 C3 0.66 3 1.32 3 2 C4.0725 2.0825 5.145 2.165 6.25 2.25 C10.2738451 3.05476902 11.48169253 3.87729874 14 7 C8.25 6.25 8.25 6.25 6 4 C3.93125966 3.3574765 3.93125966 3.3574765 2 3 C1.90525391 3.97839844 1.90525391 3.97839844 1.80859375 4.9765625 C1.13194068 9.8057286 0.4591614 13.21361035 -3.25 16.5625 C-6.37600741 18.88898351 -9.05635653 19.80762715 -13 20 C-13 19.34 -13 18.68 -13 18 C-11.906875 17.4225 -10.81375 16.845 -9.6875 16.25 C-6.65657328 14.48399633 -4.64000668 13.19369721 -3 10 C-2.38416647 7.65239298 -1.87483568 5.31161933 -1.4296875 2.92578125 C-1 1 -1 1 0 0 Z " fill="#48474D" transform="translate(128,185)"/>
<path d="M0 0 C1.59134766 0.00676758 1.59134766 0.00676758 3.21484375 0.01367188 C5.80995598 0.02536157 8.40494709 0.04174724 11 0.0625 C11 0.3925 11 0.7225 11 1.0625 C4.07 1.0625 -2.86 1.0625 -10 1.0625 C-10 1.7225 -10 2.3825 -10 3.0625 C-12.68533564 3.73912 -15.372725 4.40396121 -18.0625 5.0625 C-18.81466797 5.25328125 -19.56683594 5.4440625 -20.34179688 5.640625 C-25.02773336 6.7766096 -29.17932546 7.26736266 -34 7.0625 C-34.33 6.4025 -34.66 5.7425 -35 5.0625 C-32.66840696 4.40977539 -30.33502204 3.76524798 -28 3.125 C-27.35160156 2.94259766 -26.70320313 2.76019531 -26.03515625 2.57226562 C-17.31986522 0.19929034 -8.9881975 -0.07312051 0 0 Z " fill="#303035" transform="translate(81,195.9375)"/>
<path d="M0 0 C0.66 0 1.32 0 2 0 C0.52092375 3.89938283 -1.28932502 5.18413778 -5 7 C-16.40334057 11.88380774 -28.83585279 11.14955919 -41 11 C-41 10.34 -41 9.68 -41 9 C-37.04 9 -33.08 9 -29 9 C-29 8.67 -29 8.34 -29 8 C-28.14277344 7.95101562 -27.28554688 7.90203125 -26.40234375 7.8515625 C-20.32628365 7.4542553 -14.80830989 6.9361033 -9 5 C-7.54248155 4.68372113 -6.08411951 4.37130836 -4.625 4.0625 C-3.42875 3.711875 -2.2325 3.36125 -1 3 C-0.67 2.01 -0.34 1.02 0 0 Z " fill="#84B3B7" transform="translate(457,180)"/>
<path d="M0 0 C0.66 0 1.32 0 2 0 C1.6875 3.375 1.6875 3.375 1 7 C0.01 7.66 -0.98 8.32 -2 9 C-1.67 7.35 -1.34 5.7 -1 4 C-1.66 4 -2.32 4 -3 4 C-3 4.66 -3 5.32 -3 6 C-3.95712891 6.19916016 -3.95712891 6.19916016 -4.93359375 6.40234375 C-5.75988281 6.57894531 -6.58617187 6.75554687 -7.4375 6.9375 C-8.67306641 7.19853516 -8.67306641 7.19853516 -9.93359375 7.46484375 C-11.97661204 7.80752994 -11.97661204 7.80752994 -13 9 C-16.61805871 9.25201884 -20.2492008 9.18522535 -23.875 9.1875 C-25.40447266 9.20586914 -25.40447266 9.20586914 -26.96484375 9.22460938 C-28.43244141 9.22750977 -28.43244141 9.22750977 -29.9296875 9.23046875 C-30.82929199 9.23457764 -31.72889648 9.23868652 -32.65576172 9.24291992 C-35 9 -35 9 -38 7 C-36.95042114 6.98598145 -36.95042114 6.98598145 -35.87963867 6.97167969 C-32.64826375 6.91733953 -29.41823947 6.83382065 -26.1875 6.75 C-25.08728516 6.73582031 -23.98707031 6.72164062 -22.85351562 6.70703125 C-15.04103952 6.47657473 -5.82277554 5.82277554 0 0 Z " fill="#7FABAD" transform="translate(462,170)"/>
<path d="M0 0 C0.33 0 0.66 0 1 0 C1.93553547 18.0870191 -3.55589169 33.34668638 -10 50 C-10.66 49.34 -11.32 48.68 -12 48 C-10.67423197 43.09867576 -9.37069764 38.44489214 -6.875 34 C-4.75073971 30.0652906 -4.44911425 26.42960888 -4.2734375 22.00390625 C-4.18320312 21.34261719 -4.09296875 20.68132812 -4 20 C-3.34 19.67 -2.68 19.34 -2 19 C-1.53205677 17.06643337 -1.53205677 17.06643337 -1.3671875 14.74609375 C-1.28339844 13.89208984 -1.19960938 13.03808594 -1.11328125 12.15820312 C-0.99533203 10.81145508 -0.99533203 10.81145508 -0.875 9.4375 C-0.74544922 8.08495117 -0.74544922 8.08495117 -0.61328125 6.70507812 C-0.40048341 4.47070082 -0.19645533 2.23586385 0 0 Z " fill="#7DAAAA" transform="translate(391,311)"/>
<path d="M0 0 C0.66 0 1.32 0 2 0 C2 0.99 2 1.98 2 3 C2.66 3 3.32 3 4 3 C4.66 5.31 5.32 7.62 6 10 C6.66 10 7.32 10 8 10 C8.48212214 11.56159059 8.96055873 13.12431928 9.4375 14.6875 C9.83775391 15.99267578 9.83775391 15.99267578 10.24609375 17.32421875 C10.96437972 19.87357568 11.48694775 22.40292157 12 25 C12.81066066 28.09014212 13.63858253 31.17496877 14.4765625 34.2578125 C15 37 15 37 14 40 C13.74605469 39.154375 13.49210938 38.30875 13.23046875 37.4375 C11.08552869 30.36803463 8.80465418 23.4534208 6.03125 16.609375 C3.81251728 11.12977751 1.79600801 5.6329342 0 0 Z " fill="#535457" transform="translate(164,311)"/>
<path d="M0 0 C0.66 0 1.32 0 2 0 C2.64779076 2.39531933 3.29329009 4.79121748 3.9375 7.1875 C4.21110352 8.19780273 4.21110352 8.19780273 4.49023438 9.22851562 C6.25000188 15.78764905 7.14148527 21.51369127 7.0625 28.3125 C7.05798828 29.05306641 7.05347656 29.79363281 7.04882812 30.55664062 C7.03712175 32.37112899 7.01918898 34.18557534 7 36 C6.34 35.67 5.68 35.34 5 35 C4.49755859 32.56323242 4.49755859 32.56323242 4.1484375 29.35546875 C4.01953125 28.20369141 3.890625 27.05191406 3.7578125 25.86523438 C3.63148438 24.65158203 3.50515625 23.43792969 3.375 22.1875 C3.2409375 20.98544922 3.106875 19.78339844 2.96875 18.54492188 C2.47187455 13.99952551 2 9.57599602 2 5 C1.34 5 0.68 5 0 5 C0 3.35 0 1.7 0 0 Z " fill="#77A2A3" transform="translate(385,271)"/>
<path d="M0 0 C8.09136206 0.91112816 15.8681596 5.30200868 23 9 C23 9.66 23 10.32 23 11 C18.54639222 10.39634834 14.67956212 9.26697083 10.5 7.625 C9.4171875 7.20476562 8.334375 6.78453125 7.21875 6.3515625 C4.06861771 5.02881277 1.03654859 3.56400545 -2 2 C-1.34 1.34 -0.68 0.68 0 0 Z " fill="#302F35" transform="translate(221,275)"/>
<path d="M0 0 C8.06035599 3.58238044 14.08188461 10.84637761 19 18 C19 18.66 19 19.32 19 20 C19.99 20.33 20.98 20.66 22 21 C22 21.99 22 22.98 22 24 C22.99 24.33 23.98 24.66 25 25 C24.67 25.99 24.34 26.98 24 28 C20.93565751 25.12137524 18.29675145 22.16067673 15.75 18.8125 C12.39438247 14.4119314 8.76346668 10.3306168 5.015625 6.26171875 C3.21739075 4.24393265 1.58267776 2.1887031 0 0 Z " fill="#81ADAD" transform="translate(326,313)"/>
<path d="M0 0 C0.75 1.625 0.75 1.625 1 4 C-0.28189588 6.03335209 -1.62156808 8.03081154 -3 10 C-5.47927929 15.95928587 -5.70259747 22.09221459 -6.2109375 28.45117188 C-6.32308594 29.69157227 -6.32308594 29.69157227 -6.4375 30.95703125 C-6.49808594 31.70960205 -6.55867188 32.46217285 -6.62109375 33.23754883 C-6.74613281 33.81915771 -6.87117188 34.4007666 -7 35 C-7.99 35.495 -7.99 35.495 -9 36 C-9 30.72 -9 25.44 -9 20 C-8.34 20 -7.68 20 -7 20 C-6.93941406 19.31292969 -6.87882812 18.62585938 -6.81640625 17.91796875 C-6.73261719 17.01691406 -6.64882813 16.11585938 -6.5625 15.1875 C-6.48128906 14.29417969 -6.40007812 13.40085938 -6.31640625 12.48046875 C-6 10 -6 10 -5 7 C-4.34 7 -3.68 7 -3 7 C-2.690625 6.030625 -2.38125 5.06125 -2.0625 4.0625 C-1 1 -1 1 0 0 Z " fill="#73A5A6" transform="translate(386,207)"/>
<path d="M0 0 C1.87751953 0.00676758 1.87751953 0.00676758 3.79296875 0.01367188 C6.86202941 0.02538585 9.93098907 0.04178927 13 0.0625 C9.35170023 2.37308985 5.79931605 2.40531599 1.609375 2.4765625 C0.55245453 2.50561172 0.55245453 2.50561172 -0.52581787 2.5352478 C-2.76709039 2.59482735 -5.00841489 2.64134123 -7.25 2.6875 C-8.77345938 2.72569979 -10.29689762 2.76475269 -11.8203125 2.8046875 C-15.54668106 2.90051018 -19.27320835 2.98462107 -23 3.0625 C-22.67 2.4025 -22.34 1.7425 -22 1.0625 C-14.74127717 -0.35188349 -7.36691896 -0.05056491 0 0 Z " fill="#7FACAD" transform="translate(330,67.9375)"/>
<path d="M0 0 C4.71226743 4.22479149 7.03898605 8.7842676 8 15 C8.09149942 17.37360253 8.13004323 19.74963988 8.125 22.125 C8.12757813 23.34445313 8.13015625 24.56390625 8.1328125 25.8203125 C8 29 8 29 7 32 C6.34 32 5.68 32 5 32 C5.05220703 30.31583984 5.05220703 30.31583984 5.10546875 28.59765625 C5.84265608 15.58390411 5.84265608 15.58390411 0.39453125 4.2734375 C-0.06566406 3.85320312 -0.52585937 3.43296875 -1 3 C-0.67 2.01 -0.34 1.02 0 0 Z " fill="#7BA9A9" transform="translate(379,84)"/>
<path d="M0 0 C1.4940165 2.24102476 2.69826784 4.28849402 3.875 6.68359375 C4.22304687 7.3885498 4.57109375 8.09350586 4.9296875 8.81982422 C5.28289062 9.53928223 5.63609375 10.25874023 6 11 C6.99857518 13.01698639 7.99896079 15.03306363 9 17.04882812 C9.66822322 18.39441042 10.33488353 19.74076997 11 21.08789062 C13.18803507 25.48532829 15.52740234 29.75574196 18 34 C16.203125 33.8671875 16.203125 33.8671875 14 33 C12.296875 30.3828125 12.296875 30.3828125 10.75 27.125 C10.22921875 26.05507812 9.7084375 24.98515625 9.171875 23.8828125 C8 21 8 21 8 18 C7.34 18 6.68 18 6 18 C4.74335022 15.09399739 4 13.20395416 4 10 C3.34 10 2.68 10 2 10 C0.39644899 6.49223216 -0.22036864 3.85645121 0 0 Z " fill="#6F6F72" transform="translate(166,215)"/>
<path d="M0 0 C0.66 0.33 1.32 0.66 2 1 C1.0925 1.598125 0.185 2.19625 -0.75 2.8125 C-3.87747356 4.85281774 -3.87747356 4.85281774 -6.1875 6.75 C-8 8 -8 8 -11 8 C-10.67 8.99 -10.34 9.98 -10 11 C-12.84685749 13.31966166 -15.4763875 14.91581154 -19 16 C-19.99 15.67 -20.98 15.34 -22 15 C-15.10084067 9.21644941 -8.07419981 4.0370999 0 0 Z " fill="#8ABBBF" transform="translate(273,80)"/>
<path d="M0 0 C0.515625 0.495 1.03125 0.99 1.5625 1.5 C4.90148051 3.55475724 7.12867033 3.33373532 11 3 C14.32186171 2.08885464 14.32186171 2.08885464 17 1 C17.33 2.32 17.66 3.64 18 5 C12.36043055 6.54736486 7.82157364 7.39717767 2 6 C1.01 5.34 0.02 4.68 -1 4 C-0.67 2.68 -0.34 1.36 0 0 Z " fill="#323237" transform="translate(23,201)"/>
<path d="M0 0 C1.9375 0.375 1.9375 0.375 4 1 C5.59869331 4.19738662 5.51085495 7.530167 5 11 C3 14 3 14 1 16 C-0.32 15.67 -1.64 15.34 -3 15 C-2.26330078 14.18789062 -2.26330078 14.18789062 -1.51171875 13.359375 C0.3667612 10.42758717 0.31060725 8.69700309 0.1875 5.25 C0.16042969 4.26515625 0.13335937 3.2803125 0.10546875 2.265625 C0.05326172 1.14414063 0.05326172 1.14414063 0 0 Z " fill="#38373C" transform="translate(118,182)"/>
<path d="M0 0 C0.33 0 0.66 0 1 0 C2.28690704 5.28475761 2.30309195 10.61343096 2.4296875 16.02539062 C2.5134814 18.0242242 2.74700893 20.0154717 3 22 C3.99 22.66 4.98 23.32 6 24 C4.35 23.67 2.7 23.34 1 23 C1 21.35 1 19.7 1 18 C0.34 18 -0.32 18 -1 18 C-1.02684312 15.18743719 -1.04676188 12.37512759 -1.0625 9.5625 C-1.07087891 8.76005859 -1.07925781 7.95761719 -1.08789062 7.13085938 C-1.0965143 5.08704779 -1.0522815 3.04316098 -1 1 C-0.67 0.67 -0.34 0.34 0 0 Z " fill="#302F35" transform="translate(111,218)"/>
<path d="M0 0 C1.98 0 3.96 0 6 0 C6 0.99 6 1.98 6 3 C5.01 3 4.02 3 3 3 C3.10699219 3.67546875 3.21398437 4.3509375 3.32421875 5.046875 C3.44410156 5.93890625 3.56398438 6.8309375 3.6875 7.75 C3.81511719 8.63171875 3.94273438 9.5134375 4.07421875 10.421875 C3.98397191 13.55676517 3.07384637 14.71823587 1 17 C0.63724344 14.73052303 0.28506814 12.45935265 -0.0625 10.1875 C-0.25972656 8.92292969 -0.45695312 7.65835938 -0.66015625 6.35546875 C-1 3 -1 3 0 0 Z " fill="#4A4C52" transform="translate(108,205)"/>
<path d="M0 0 C1.17252726 3.56969409 0.84624999 6.59755782 0.5625 10.3125 C0.46792519 15.22576867 0.46792519 15.22576867 2.77734375 19.40625 C4.7774275 21.12161181 6.75597677 22.62253038 9 24 C8.01 24.33 7.02 24.66 6 25 C1.52722044 21.92496405 -1.12213975 19.21627847 -3 14 C-3.60981144 8.41006182 -2.40668303 4.91364452 0 0 Z " fill="#292A2E" transform="translate(177,386)"/>
<path d="M0 0 C1.92612073 2.8891811 3.1314352 5.5438347 4.4375 8.75 C5.81080444 12.12046989 7.20240463 15.45659508 8.75 18.75 C10.22804092 22.59290639 10.64112279 25.90879978 11 30 C8.70366176 26.55549263 8.45983515 24.06187717 8 20 C7.34 20 6.68 20 6 20 C6 19.01 6 18.02 6 17 C5.01 16.67 4.02 16.34 3 16 C2.05078125 13.41796875 2.05078125 13.41796875 1.3125 10.1875 C1.06113281 9.12917969 0.80976563 8.07085937 0.55078125 6.98046875 C0 4 0 4 0 0 Z " fill="#3D3E42" transform="translate(160,294)"/>
<path d="M0 0 C3.3 0.99 6.6 1.98 10 3 C9.67 4.32 9.34 5.64 9 7 C3.06 7.495 3.06 7.495 -3 8 C-3 7.34 -3 6.68 -3 6 C-2.01 5.34 -1.02 4.68 0 4 C0 2.68 0 1.36 0 0 Z " fill="#90BCBE" transform="translate(389,166)"/>
<path d="M0 0 C0.66 0.33 1.32 0.66 2 1 C-0.61597846 4.32942713 -3.16777676 7.24179484 -6.4375 9.9375 C-10.84063706 13.59239155 -14.41849469 17.79718904 -17.75 22.4375 C-18.1625 22.953125 -18.575 23.46875 -19 24 C-19.66 24 -20.32 24 -21 24 C-16.63492117 14.52154311 -7.33987584 7.23140477 0 0 Z " fill="#87AFB0" transform="translate(249,96)"/>
<path d="M0 0 C-3.43164027 3.08761618 -6.5752129 3.73676368 -11.0625 4.5625 C-16.33226228 5.51542127 -16.33226228 5.51542127 -21 8 C-23.04296875 8.4140625 -23.04296875 8.4140625 -25.1875 8.625 C-26.445625 8.74875 -27.70375 8.8725 -29 9 C-21.12467669 2.67451148 -10.0515547 -0.51546434 0 0 Z " fill="#82ADAE" transform="translate(304,71)"/>
<path d="M0 0 C11.88 0 23.76 0 36 0 C36 0.33 36 0.66 36 1 C28.08 1 20.16 1 12 1 C12 1.66 12 2.32 12 3 C8.10885099 4.01911045 6.39403493 4.16782969 2.625 2.5625 C1.75875 2.046875 0.8925 1.53125 0 1 C0 0.67 0 0.34 0 0 Z " fill="#313237" transform="translate(260,421)"/>
<path d="M0 0 C0.33 0.66 0.66 1.32 1 2 C-1.63590819 7.9594446 -5.28789089 11.79793473 -11 15 C-11.99 15 -12.98 15 -14 15 C-13.67 14.01 -13.34 13.02 -13 12 C-10.4375 10.8125 -10.4375 10.8125 -8 10 C-8 9.34 -8 8.68 -8 8 C-7.34 8 -6.68 8 -6 8 C-5.7525 7.4225 -5.505 6.845 -5.25 6.25 C-3.83316683 3.6997003 -2.12372463 1.98214299 0 0 Z " fill="#3C3C41" transform="translate(360,392)"/>
<path d="M0 0 C5.445 1.485 5.445 1.485 11 3 C11 3.66 11 4.32 11 5 C12.258125 5.144375 13.51625 5.28875 14.8125 5.4375 C17.42667123 5.73748686 19.47439892 6.15813297 22 7 C22 7.66 22 8.32 22 9 C24.31 9.33 26.62 9.66 29 10 C29 10.66 29 11.32 29 12 C23.52613131 11.02195654 18.55739924 9.09487655 13.375 7.125 C12.42109375 6.77308594 11.4671875 6.42117188 10.484375 6.05859375 C9.56914062 5.71183594 8.65390625 5.36507813 7.7109375 5.0078125 C6.87868652 4.69473145 6.04643555 4.38165039 5.18896484 4.05908203 C3 3 3 3 0 0 Z " fill="#7FA1A3" transform="translate(217,255)"/>
<path d="M0 0 C0.66 0 1.32 0 2 0 C1.34 3.96 0.68 7.92 0 12 C-0.66 12 -1.32 12 -2 12 C-2.03738281 12.74765625 -2.07476562 13.4953125 -2.11328125 14.265625 C-2.17902344 15.25046875 -2.24476563 16.2353125 -2.3125 17.25 C-2.39951172 18.71179688 -2.39951172 18.71179688 -2.48828125 20.203125 C-3.04636524 23.25341611 -3.96369776 24.70711276 -6 27 C-5.43755107 20.54153469 -4.26271535 14.64936738 -2.4375 8.4375 C-2.20353516 7.61958984 -1.96957031 6.80167969 -1.72851562 5.95898438 C-1.15880046 3.97079473 -0.58033086 1.98511701 0 0 Z " fill="#86ADB0" transform="translate(205,159)"/>
<path d="M0 0 C11.22 0 22.44 0 34 0 C34 0.33 34 0.66 34 1 C21.625 1.495 21.625 1.495 9 2 C9.99 3.485 9.99 3.485 11 5 C8.69 4.67 6.38 4.34 4 4 C4 3.34 4 2.68 4 2 C2.68 1.67 1.36 1.34 0 1 C0 0.67 0 0.34 0 0 Z " fill="#54555A" transform="translate(255,420)"/>
<path d="M0 0 C0.66 0 1.32 0 2 0 C3.92885868 3.24048257 5.04611001 5.24686981 4.8125 9.0625 C4.05066909 11.81681176 3.15292532 14.38670261 2 17 C1 14 1 14 1 11 C0.01 10.67 -0.98 10.34 -2 10 C-1.67 9.01 -1.34 8.02 -1 7 C-1 6.01 -1 5.02 -1 4 C-0.34 4 0.32 4 1 4 C0.67 2.68 0.34 1.36 0 0 Z " fill="#4D5259" transform="translate(375,354)"/>
<path d="M0 0 C0 0.66 0 1.32 0 2 C-2.40625 2.65625 -2.40625 2.65625 -4.8125 3.3125 C-6.30910156 3.72628906 -6.30910156 3.72628906 -7.8359375 4.1484375 C-9.89619919 4.70292768 -11.96396733 5.23046006 -14.0390625 5.7265625 C-15.47378906 6.07847656 -15.47378906 6.07847656 -16.9375 6.4375 C-17.81277344 6.64246094 -18.68804687 6.84742188 -19.58984375 7.05859375 C-22.46189829 8.18041732 -23.97396669 9.71072339 -26 12 C-26 9 -26 9 -24.0625 6.9375 C-20.74504872 4.83870429 -18.21563907 4.20955006 -14.4140625 3.50390625 C-11.14678023 2.82190073 -8.07929549 1.72046181 -4.9453125 0.5859375 C-3 0 -3 0 0 0 Z " fill="#656468" transform="translate(46,185)"/>
<path d="M0 0 C3.53431008 3.53431008 3.20624957 7.60030932 3.3125 12.4375 C3.34988281 13.54996094 3.38726562 14.66242188 3.42578125 15.80859375 C2.91626393 19.6276364 1.61442374 21.24118994 -1 24 C-0.9278125 22.9378125 -0.855625 21.875625 -0.78125 20.78125 C-0.68736353 19.35417564 -0.59362127 17.92709178 -0.5 16.5 C-0.45230469 15.80390625 -0.40460938 15.1078125 -0.35546875 14.390625 C-0.04386633 9.58304475 0.04340282 4.81771254 0 0 Z " fill="#2F3035" transform="translate(182,357)"/>
<path d="M0 0 C6.1012578 1.05146393 10.82618716 2.55079144 16 6 C16.33 6.66 16.66 7.32 17 8 C18.64363134 8.72159424 20.31050386 9.39351421 22 10 C21.34 10.66 20.68 11.32 20 12 C13.4 8.37 6.8 4.74 0 1 C0 0.67 0 0.34 0 0 Z " fill="#81ADAE" transform="translate(276,280)"/>
<path d="M0 0 C9.55811684 0.50305878 17.35510233 7.72632566 24 14 C23.01 14.495 23.01 14.495 22 15 C21.49210937 14.52949219 20.98421875 14.05898437 20.4609375 13.57421875 C14.1362293 7.85355572 7.95465292 4.88013295 0 2 C0 1.34 0 0.68 0 0 Z " fill="#6E6D70" transform="translate(131,185)"/>
<path d="M0 0 C8.4351814 2.97712285 12.50002905 7.5319631 17 15 C16.01 15.33 15.02 15.66 14 16 C13.71125 15.401875 13.4225 14.80375 13.125 14.1875 C11.95257974 11.80672208 11.95257974 11.80672208 10 9 C10 8.34 10 7.68 10 7 C8.02 6.34 6.04 5.68 4 5 C4 4.34 4 3.68 4 3 C2.35 2.67 0.7 2.34 -1 2 C-0.67 1.34 -0.34 0.68 0 0 Z " fill="#81B1B2" transform="translate(411,121)"/>
<path d="M0 0 C0.66 0 1.32 0 2 0 C2.33 1.65 2.66 3.3 3 5 C3.71285156 5.02578125 4.42570312 5.0515625 5.16015625 5.078125 C11.56916582 5.45766258 15.7001799 6.34901282 21 10 C20.01 10.495 20.01 10.495 19 11 C17.7625 10.566875 17.7625 10.566875 16.5 10.125 C12.66323704 8.89175476 9.27392393 8.6743876 5.26953125 8.5390625 C3 8 3 8 1.19921875 6.2109375 C0 4 0 4 0 0 Z " fill="#414145" transform="translate(110,236)"/>
<path d="M0 0 C0.33 0.66 0.66 1.32 1 2 C3.97 1.34 6.94 0.68 10 0 C6.92000054 3.67230705 4.7517398 4.56802365 0 5 C0 4.01 0 3.02 0 2 C-0.66 1.67 -1.32 1.34 -2 1 C-1.34 0.67 -0.68 0.34 0 0 Z M-3 5 C-2.01 5.33 -1.02 5.66 0 6 C-0.33 9.96 -0.66 13.92 -1 18 C-1.33 18 -1.66 18 -2 18 C-2.33 13.71 -2.66 9.42 -3 5 Z " fill="#4F4F57" transform="translate(114,203)"/>
<path d="M0 0 C-0.33 0.66 -0.66 1.32 -1 2 C-3.328125 2.6328125 -3.328125 2.6328125 -6.25 3.125 C-7.20390625 3.29257812 -8.1578125 3.46015625 -9.140625 3.6328125 C-11.80099245 3.97444439 -14.32205635 4.06841462 -17 4 C-17 3.01 -17 2.02 -17 1 C-14.91835982 0.63601378 -12.83459438 0.28416713 -10.75 -0.0625 C-9.00976562 -0.35833984 -9.00976562 -0.35833984 -7.234375 -0.66015625 C-4.37477376 -0.9606216 -2.66674071 -0.9439206 0 0 Z " fill="#313236" transform="translate(315,419)"/>
<path d="M0 0 C0.66 0 1.32 0 2 0 C4.66556329 6.8543056 6.41317667 12.76046998 4 20 C3.67 20.66 3.34 21.32 3 22 C3.99 22.33 4.98 22.66 6 23 C4.68 23 3.36 23 2 23 C2.01160156 22.38253906 2.02320313 21.76507813 2.03515625 21.12890625 C2.11161198 13.95298943 1.857529 6.96183137 0 0 Z " fill="#313136" transform="translate(342,368)"/>
<path d="M0 0 C0.66 0.66 1.32 1.32 2 2 C4.06874034 2.6425235 4.06874034 2.6425235 6 3 C6.33 2.34 6.66 1.68 7 1 C6.6875 3.875 6.6875 3.875 6 7 C3 9 3 9 0 9 C-0.87890625 2.84765625 -0.87890625 2.84765625 -1 1 C-0.67 0.67 -0.34 0.34 0 0 Z " fill="#4E5057" transform="translate(366,368)"/>
<path d="M0 0 C4.76350585 0.71452588 9.34201396 1.79534844 14 3 C13.67 3.66 13.34 4.32 13 5 C7.80790596 5.21192221 3.873261 4.5912689 -1 3 C-0.67 2.01 -0.34 1.02 0 0 Z " fill="#333337" transform="translate(194,413)"/>
<path d="M0 0 C1.15782198 3.38084018 0.83835147 5.29663219 -0.375 8.625 C-0.65085937 9.40101563 -0.92671875 10.17703125 -1.2109375 10.9765625 C-2 13 -2 13 -3 15 C-5.0625 15.625 -5.0625 15.625 -7 16 C-4.90143748 10.5787135 -2.60048066 5.20096132 0 0 Z " fill="#38393D" transform="translate(376,364)"/>
<path d="M0 0 C0.33 0 0.66 0 1 0 C1.4375 18.22916667 1.4375 18.22916667 -1 25 C-1.66 25.33 -2.32 25.66 -3 26 C-3.33 23.69 -3.66 21.38 -4 19 C-3.34 19 -2.68 19 -2 19 C-1.34 12.73 -0.68 6.46 0 0 Z " fill="#7BAAA9" transform="translate(391,311)"/>
<path d="M0 0 C3.375 0.3125 3.375 0.3125 7 1 C7.66 1.99 8.32 2.98 9 4 C8.01 4.33 7.02 4.66 6 5 C6 5.66 6 6.32 6 7 C3.69 6.67 1.38 6.34 -1 6 C-0.649375 5.38125 -0.29875 4.7625 0.0625 4.125 C0.371875 3.42375 0.68125 2.7225 1 2 C0.67 1.34 0.34 0.68 0 0 Z " fill="#8ED1D6" transform="translate(380,167)"/>
<path d="M0 0 C0.33 0 0.66 0 1 0 C1 3.96 1 7.92 1 12 C0.67 12 0.34 12 0 12 C-0.66 15.3 -1.32 18.6 -2 22 C-2.33 22 -2.66 22 -3 22 C-2.89040282 18.70762945 -2.75971069 15.41643113 -2.625 12.125 C-2.5940625 11.18785156 -2.563125 10.25070312 -2.53125 9.28515625 C-2.49257813 8.38925781 -2.45390625 7.49335938 -2.4140625 6.5703125 C-2.3826416 5.74289551 -2.3512207 4.91547852 -2.31884766 4.06298828 C-2 2 -2 2 0 0 Z " fill="#91C4C4" transform="translate(392,304)"/>
<path d="M0 0 C2.12109375 0.38671875 2.12109375 0.38671875 4 1 C3.22914063 1.54269531 2.45828125 2.08539063 1.6640625 2.64453125 C0.66117187 3.35996094 -0.34171875 4.07539063 -1.375 4.8125 C-2.37273437 5.52019531 -3.37046875 6.22789062 -4.3984375 6.95703125 C-7.16680648 8.91242339 -7.16680648 8.91242339 -9 12 C-9.66 12 -10.32 12 -11 12 C-10.3125 9.125 -10.3125 9.125 -9 6 C-6.625 4.875 -6.625 4.875 -4 4 C-2.9790625 2.9171875 -2.9790625 2.9171875 -1.9375 1.8125 C-1.298125 1.214375 -0.65875 0.61625 0 0 Z " fill="#79A7AA" transform="translate(399,195)"/>
<path d="M0 0 C0.90105469 0.11085938 1.80210937 0.22171875 2.73046875 0.3359375 C3.76107422 0.47902344 3.76107422 0.47902344 4.8125 0.625 C3.10421079 2.73133718 2.29101584 3.56301608 -0.44921875 3.91796875 C-1.24972656 3.88316406 -2.05023438 3.84835938 -2.875 3.8125 C-3.68324219 3.78542969 -4.49148438 3.75835937 -5.32421875 3.73046875 C-5.93910156 3.69566406 -6.55398438 3.66085938 -7.1875 3.625 C-7.5175 2.965 -7.8475 2.305 -8.1875 1.625 C-4.73535147 -0.67643236 -3.95270676 -0.51333854 0 0 Z M-12.1875 3.625 C-10.5375 3.625 -8.8875 3.625 -7.1875 3.625 C-7.1875 3.955 -7.1875 4.285 -7.1875 4.625 C-8.8375 4.625 -10.4875 4.625 -12.1875 4.625 C-12.1875 4.295 -12.1875 3.965 -12.1875 3.625 Z " fill="#92CDCD" transform="translate(307.1875,70.375)"/>
<path d="M0 0 C5.36513131 0.847126 10.6787385 1.91681831 16 3 C15.67 3.66 15.34 4.32 15 5 C10.71 4.67 6.42 4.34 2 4 C2 3.34 2 2.68 2 2 C1.34 1.34 0.68 0.68 0 0 Z " fill="#26262A" transform="translate(213,417)"/>
<path d="M0 0 C1.4391134 0.28359887 2.87625518 0.57721399 4.3125 0.875 C5.11300781 1.03742188 5.91351563 1.19984375 6.73828125 1.3671875 C9 2 9 2 12 4 C12 4.99 12 5.98 12 7 C13.32 7.66 14.64 8.32 16 9 C11.67734423 8.43102154 8.81856666 6.87210245 5.1875 4.5 C4.21167969 3.8709375 3.23585938 3.241875 2.23046875 2.59375 C1.49441406 2.0678125 0.75835937 1.541875 0 1 C0 0.67 0 0.34 0 0 Z " fill="#333339" transform="translate(275,301)"/>
<path d="M0 0 C0 0.33 0 0.66 0 1 C-4.95 1.33 -9.9 1.66 -15 2 C-15 2.66 -15 3.32 -15 4 C-17.64 4.33 -20.28 4.66 -23 5 C-23 4.34 -23 3.68 -23 3 C-21.12577848 2.51779737 -19.25058246 2.03938167 -17.375 1.5625 C-15.80878906 1.16224609 -15.80878906 1.16224609 -14.2109375 0.75390625 C-9.13936711 -0.43686393 -5.10286102 -1.35075733 0 0 Z " fill="#56555A" transform="translate(69,182)"/>
<path d="M0 0 C6.41144414 0.49318801 6.41144414 0.49318801 9.25 2.9375 C9.8275 3.618125 10.405 4.29875 11 5 C11.99 5.66 12.98 6.32 14 7 C8.29290936 6.53411505 4.84060277 5.06242216 0 2 C0 1.34 0 0.68 0 0 Z " fill="#2D2D32" transform="translate(245,286)"/>
<path d="M0 0 C4.10958767 1.45044271 7.43258745 3.51110752 11 6 C10.67 6.66 10.34 7.32 10 8 C6.2089881 6.55049545 2.6125362 4.84827434 -1 3 C-0.67 2.01 -0.34 1.02 0 0 Z " fill="#323336" transform="translate(201,264)"/>
<path d="M0 0 C2 1 2 1 3.0625 4 C4.19129923 8.27521598 4.62119911 12.60391604 5 17 C4.34 17 3.68 17 3 17 C0.4084738 11.06108578 -0.40368295 6.45892714 0 0 Z " fill="#88BEBF" transform="translate(198,227)"/>
<path d="M0 0 C0 4.07605096 -1.55272534 6.7838181 -4 10 C-6.25 10.9375 -6.25 10.9375 -8 11 C-8 9.68 -8 8.36 -8 7 C-7.34 7 -6.68 7 -6 7 C-5.7525 6.21625 -5.505 5.4325 -5.25 4.625 C-3.84610901 1.67682892 -2.99324263 1.0975223 0 0 Z " fill="#333539" transform="translate(363,373)"/>
<path d="M0 0 C0.66 0 1.32 0 2 0 C4.63463787 5.84560277 6.56131481 10.54487966 6 17 C5.34 17 4.68 17 4 17 C3.79503906 16.10796875 3.59007812 15.2159375 3.37890625 14.296875 C3.10949219 13.12640625 2.84007812 11.9559375 2.5625 10.75 C2.29566406 9.58984375 2.02882813 8.4296875 1.75390625 7.234375 C1.19032 4.81650239 0.61330049 2.40556696 0 0 Z " fill="#7BA6A8" transform="translate(358,355)"/>
<path d="M0 0 C0.99 0.33 1.98 0.66 3 1 C2.34 1 1.68 1 1 1 C1 1.66 1 2.32 1 3 C1.66 3.33 2.32 3.66 3 4 C-0.75 5.125 -0.75 5.125 -3 4 C-3.33 5.32 -3.66 6.64 -4 8 C-5.32 8.33 -6.64 8.66 -8 9 C-6.40758592 4.70048197 -3.64459275 2.60328053 0 0 Z " fill="#8CCED3" transform="translate(372,176)"/>
<path d="M0 0 C2.92879371 0.62759865 5.36095629 1.58622659 8 3 C8 3.66 8 4.32 8 5 C9.4540625 5.4021875 9.4540625 5.4021875 10.9375 5.8125 C11.948125 6.204375 12.95875 6.59625 14 7 C14.33 7.99 14.66 8.98 15 10 C10.93968076 10 8.88586698 7.94806989 5.8125 5.5625 C5.25369141 5.14162109 4.69488281 4.72074219 4.11914062 4.28710938 C2.72266701 3.22142438 1.35825845 2.11398251 0 1 C0 0.67 0 0.34 0 0 Z " fill="#84ABAC" transform="translate(309,300)"/>
<path d="M0 0 C0.33 0.99 0.66 1.98 1 3 C-0.07429598 3.84495189 -1.15989202 4.67554858 -2.25 5.5 C-3.15492187 6.19609375 -3.15492187 6.19609375 -4.078125 6.90625 C-6 8 -6 8 -10 8 C-10 7.34 -10 6.68 -10 6 C-7.8125 4.4921875 -7.8125 4.4921875 -5 2.875 C-4.071875 2.33617187 -3.14375 1.79734375 -2.1875 1.2421875 C-1.465625 0.83226562 -0.74375 0.42234375 0 0 Z " fill="#2B2B31" transform="translate(125,197)"/>
<path d="M0 0 C0.66 0.66 1.32 1.32 2 2 C1.2884375 3.175625 1.2884375 3.175625 0.5625 4.375 C-0.33898023 5.88948678 -1.21179485 7.4235897 -2 9 C-2.66 9 -3.32 9 -4 9 C-4.66 11.31 -5.32 13.62 -6 16 C-6.66 15.67 -7.32 15.34 -8 15 C-6.62712658 11.30123909 -4.93644547 8.0485524 -2.875 4.6875 C-2.33617187 3.80449219 -1.79734375 2.92148438 -1.2421875 2.01171875 C-0.83226562 1.34785156 -0.42234375 0.68398437 0 0 Z " fill="#84AFB1" transform="translate(220,130)"/>
<path d="M0 0 C0 3.09875672 -0.58261252 5.24421515 -1.5 8.1875 C-1.7784375 9.08855469 -2.056875 9.98960937 -2.34375 10.91796875 C-2.66859375 11.94857422 -2.66859375 11.94857422 -3 13 C-3.66 13 -4.32 13 -5 13 C-5.12375 12.030625 -5.2475 11.06125 -5.375 10.0625 C-5.58125 9.051875 -5.7875 8.04125 -6 7 C-6.66 6.67 -7.32 6.34 -8 6 C-5.525 6.495 -5.525 6.495 -3 7 C-2.690625 6.030625 -2.38125 5.06125 -2.0625 4.0625 C-1 1 -1 1 0 0 Z " fill="#93CDCE" transform="translate(383,346)"/>
<path d="M0 0 C5.94 2.475 5.94 2.475 12 5 C11.01 5.99 10.02 6.98 9 8 C6.5 6.625 6.5 6.625 4 5 C4 4.34 4 3.68 4 3 C2.68 2.67 1.36 2.34 0 2 C0 1.34 0 0.68 0 0 Z " fill="#37393D" transform="translate(255,289)"/>
<path d="M0 0 C6.11774896 -0.49940808 9.02495953 0.75099398 14 4 C10.53837028 5.15387657 9.79997125 4.79998922 6.5 3.5625 C3.70646782 2.52423721 2.02090819 2 -1 2 C-0.67 1.34 -0.34 0.68 0 0 Z " fill="#92CDCE" transform="translate(246,265)"/>
<path d="M0 0 C5.03985731 0.44469329 7.37634988 2.71343362 11 6 C10.01 6.495 10.01 6.495 9 7 C6.99152635 6.01712992 4.99180409 5.01622658 3 4 C2.01 4 1.02 4 0 4 C0 2.68 0 1.36 0 0 Z " fill="#343438" transform="translate(188,256)"/>
<path d="M0 0 C1.98 0.66 3.96 1.32 6 2 C6 2.66 6 3.32 6 4 C7.32 4.33 8.64 4.66 10 5 C9.67 5.33 9.34 5.66 9 6 C4.90210331 5.62056512 2.46041065 5.30694043 -1 3 C-0.67 2.01 -0.34 1.02 0 0 Z " fill="#414045" transform="translate(212,270)"/>
<path d="M0 0 C3.86933162 0.57323431 6.15222057 2.38953552 9 5 C9 5.66 9 6.32 9 7 C10.32 7.33 11.64 7.66 13 8 C13.33 9.65 13.66 11.3 14 13 C12.8274869 12.04882866 11.66212985 11.08882991 10.5 10.125 C9.8503125 9.59132812 9.200625 9.05765625 8.53125 8.5078125 C8.0259375 8.01023438 7.520625 7.51265625 7 7 C7 6.34 7 5.68 7 5 C6.21625 4.731875 5.4325 4.46375 4.625 4.1875 C2 3 2 3 0 0 Z " fill="#302F35" transform="translate(142,192)"/>
<path d="M0 0 C0.66 0.33 1.32 0.66 2 1 C1.0925 1.598125 0.185 2.19625 -0.75 2.8125 C-3.87747356 4.85281774 -3.87747356 4.85281774 -6.1875 6.75 C-8 8 -8 8 -11 8 C-11.33 8.66 -11.66 9.32 -12 10 C-12 9.01 -12 8.02 -12 7 C-9.8828125 5.4296875 -9.8828125 5.4296875 -7.125 3.875 C-6.22007812 3.35679688 -5.31515625 2.83859375 -4.3828125 2.3046875 C-2.93502074 1.51196217 -1.47635075 0.73817538 0 0 Z " fill="#85ADB2" transform="translate(273,80)"/>
<path d="M0 0 C-0.33 0.66 -0.66 1.32 -1 2 C-9.57142857 2.28571429 -9.57142857 2.28571429 -13 0 C-9.57766413 -3.42233587 -3.78126634 -1.94792509 0 0 Z " fill="#91CDCE" transform="translate(357,72)"/>
<path d="M0 0 C0.33 0 0.66 0 1 0 C1 5.28 1 10.56 1 16 C0.34 15.67 -0.32 15.34 -1 15 C-1.4140625 12.27734375 -1.4140625 12.27734375 -1.625 8.9375 C-1.69976562 7.83277344 -1.77453125 6.72804688 -1.8515625 5.58984375 C-1.90054687 4.73519531 -1.94953125 3.88054687 -2 3 C-1.34 3 -0.68 3 0 3 C0 2.01 0 1.02 0 0 Z " fill="#86B2B4" transform="translate(391,291)"/>
<path d="M0 0 C0.99 0.33 1.98 0.66 3 1 C1.68 1.33 0.36 1.66 -1 2 C-1 2.99 -1 3.98 -1 5 C-4 7 -4 7 -7.1875 6.625 C-8.115625 6.41875 -9.04375 6.2125 -10 6 C-6.70675477 3.80450318 -3.51812879 1.82188812 0 0 Z " fill="#353439" transform="translate(342,407)"/>
<path d="M0 0 C0.99 0 1.98 0 3 0 C3 0.66 3 1.32 3 2 C3.66 2.33 4.32 2.66 5 3 C3.56656 3.53190541 2.12804633 4.05015258 0.6875 4.5625 C-0.51326172 4.99755859 -0.51326172 4.99755859 -1.73828125 5.44140625 C-4 6 -4 6 -7 5 C-6.34 4.34 -5.68 3.68 -5 3 C-3.68 3 -2.36 3 -1 3 C-0.67 2.01 -0.34 1.02 0 0 Z " fill="#8AB9BC" transform="translate(410,189)"/>
<path d="M0 0 C5.27315333 0.4452885 10.01770224 1.08373163 15 3 C15 3.33 15 3.66 15 4 C6.42857143 4.14285714 6.42857143 4.14285714 3 3 C3 2.34 3 1.68 3 1 C2.01 0.67 1.02 0.34 0 0 Z " fill="#8CD1D4" transform="translate(401,164)"/>
<path d="M0 0 C5.75 2.625 5.75 2.625 8 6 C7.625 8.6875 7.625 8.6875 7 11 C6.34 10.01 5.68 9.02 5 8 C4.13375 7.175 3.2675 6.35 2.375 5.5 C0 3 0 3 0 0 Z " fill="#80ABAD" transform="translate(455,147)"/>
<path d="M0 0 C2.76669035 2.37033864 3.72666067 4.46545585 4.75 7.9375 C5.14445313 9.21947266 5.14445313 9.21947266 5.546875 10.52734375 C6 13 6 13 5 17 C4.34 13.7 3.68 10.4 3 7 C2.34 7 1.68 7 1 7 C1 6.01 1 5.02 1 4 C0.34 4 -0.32 4 -1 4 C-0.67 2.68 -0.34 1.36 0 0 Z " fill="#27282D" transform="translate(165,307)"/>
<path d="M0 0 C5.57142857 5.14285714 5.57142857 5.14285714 6 9 C6.66 9 7.32 9 8 9 C8.66 10.98 9.32 12.96 10 15 C8.5 13.625 8.5 13.625 7 12 C7 11.34 7 10.68 7 10 C6.34 10 5.68 10 5 10 C4.34 8.35 3.68 6.7 3 5 C2.34 5 1.68 5 1 5 C0.67 3.35 0.34 1.7 0 0 Z " fill="#646468" transform="translate(155,200)"/>
<path d="M0 0 C8.19256018 0.35010941 8.19256018 0.35010941 11.5625 3.0625 C12.036875 3.701875 12.51125 4.34125 13 5 C7.25 4.25 7.25 4.25 5 2 C2.93125966 1.3574765 2.93125966 1.3574765 1 1 C0.67 2.98 0.34 4.96 0 7 C-0.33 7 -0.66 7 -1 7 C-0.67 4.69 -0.34 2.38 0 0 Z " fill="#29282E" transform="translate(129,187)"/>
<path d="M0 0 C5.66104589 0.49658297 9.87674471 1.54510684 15 4 C13.02 4.99 13.02 4.99 11 6 C11 5.34 11 4.68 11 4 C8.69 3.67 6.38 3.34 4 3 C4 2.34 4 1.68 4 1 C2.68 0.67 1.36 0.34 0 0 Z " fill="#81ADAF" transform="translate(353,71)"/>
<path d="M0 0 C0.99 0.495 0.99 0.495 2 1 C2 1.66 2 2.32 2 3 C2.66 3 3.32 3 4 3 C4.28875 3.639375 4.5775 4.27875 4.875 4.9375 C5.82823451 7.15206079 5.82823451 7.15206079 8 8 C8 9.65 8 11.3 8 13 C7.34 13 6.68 13 6 13 C3.81673892 8.72886302 1.68673918 4.49797113 0 0 Z " fill="#2F2F33" transform="translate(158,207)"/>
<path d="M0 0 C-3.46067375 3.11984982 -6.73031812 3.80867297 -11.25 4.6875 C-13.14492188 5.06455078 -13.14492188 5.06455078 -15.078125 5.44921875 C-16.04234375 5.63097656 -17.0065625 5.81273437 -18 6 C-18 5.34 -18 4.68 -18 4 C-17.22914062 3.79503906 -16.45828125 3.59007812 -15.6640625 3.37890625 C-14.66117188 3.10949219 -13.65828125 2.84007812 -12.625 2.5625 C-11.62726562 2.29566406 -10.62953125 2.02882812 -9.6015625 1.75390625 C-3.25375 -0.085625 -3.25375 -0.085625 0 0 Z " fill="#2B2B30" transform="translate(42,188)"/>
<path d="M0 0 C4.455 0.99 4.455 0.99 9 2 C9 2.66 9 3.32 9 4 C11.97 4.495 11.97 4.495 15 5 C14.67 5.66 14.34 6.32 14 7 C9.0276578 5.50829734 4.58154261 3.39542583 0 1 C0 0.67 0 0.34 0 0 Z " fill="#80AAAB" transform="translate(259,272)"/>
<path d="M0 0 C0.66 0.66 1.32 1.32 2 2 C1.01 4.64 0.02 7.28 -1 10 C-1.99 9.01 -2.98 8.02 -4 7 C-3.83394098 4.34305562 -3.21086001 3.23616321 -1.4375 1.25 C-0.963125 0.8375 -0.48875 0.425 0 0 Z " fill="#444348" transform="translate(23,193)"/>
<path d="M0 0 C0.671875 1.765625 0.671875 1.765625 1 4 C-0.109375 5.921875 -0.109375 5.921875 -1.75 7.75 C-2.54664063 8.67039063 -2.54664063 8.67039063 -3.359375 9.609375 C-5 11 -5 11 -8 11 C-8 10.34 -8 9.68 -8 9 C-4.53846154 6 -4.53846154 6 -2 6 C-1.34 4.02 -0.68 2.04 0 0 Z " fill="#76A7A9" transform="translate(462,159)"/>
<path d="M0 0 C1.46067199 0.45082469 2.91848032 0.91093537 4.375 1.375 C5.18710937 1.63023437 5.99921875 1.88546875 6.8359375 2.1484375 C9 3 9 3 11 5 C7.98968256 5.93423645 7.13349732 6.04449911 4 5 C4 4.34 4 3.68 4 3 C2.68 2.67 1.36 2.34 0 2 C0 1.34 0 0.68 0 0 Z " fill="#82ADAF" transform="translate(428,137)"/>
<path d="M0 0 C0.99 0.495 0.99 0.495 2 1 C2.33 1.99 2.66 2.98 3 4 C3.66 4.33 4.32 4.66 5 5 C5.6328125 7.06640625 5.6328125 7.06640625 6.125 9.5625 C6.29257812 10.38878906 6.46015625 11.21507812 6.6328125 12.06640625 C6.75398438 12.70449219 6.87515625 13.34257812 7 14 C0 5.25 0 5.25 0 0 Z " fill="#87ABAD" transform="translate(351,341)"/>
<path d="M0 0 C0.33 0.66 0.66 1.32 1 2 C1.66 2 2.32 2 3 2 C3.33 1.34 3.66 0.68 4 0 C5 6.625 5 6.625 5 10 C3 9 3 9 2 6 C0.50014391 4.33289654 0.50014391 4.33289654 -1 3 C-0.67 2.01 -0.34 1.02 0 0 Z " fill="#8FCED0" transform="translate(345,328)"/>
<path d="M0 0 C4.4729103 1.98796013 8.16161102 4.24337546 10.3125 8.75 C10.6528125 9.86375 10.6528125 9.86375 11 11 C6.86378916 7.6189962 3.18683431 4.33409466 0 0 Z " fill="#76A1A2" transform="translate(326,313)"/>
<path d="M0 0 C3.63 1.32 7.26 2.64 11 4 C11 4.66 11 5.32 11 6 C8.69 5.67 6.38 5.34 4 5 C4 4.34 4 3.68 4 3 C2.35 2.67 0.7 2.34 -1 2 C-0.67 1.34 -0.34 0.68 0 0 Z " fill="#8DCFD1" transform="translate(235,259)"/>
<path d="M0 0 C2.33944736 0.28730055 4.6739143 0.61936779 7 1 C6.67 2.32 6.34 3.64 6 5 C3.625 4.6875 3.625 4.6875 1 4 C0.34 3.01 -0.32 2.02 -1 1 C-0.67 0.67 -0.34 0.34 0 0 Z " fill="#88BDBD" transform="translate(448,145)"/>
<path d="M0 0 C-1.78953185 0.83790789 -3.58169695 1.67019396 -5.375 2.5 C-6.87160156 3.19609375 -6.87160156 3.19609375 -8.3984375 3.90625 C-11 5 -11 5 -13 5 C-12.5 3.125 -12.5 3.125 -11 1 C-7.08733883 -0.61407836 -4.0524829 -1.35082763 0 0 Z " fill="#8FCFD3" transform="translate(286,79)"/>
<path d="M0 0 C-3.70840948 3.55389242 -7.03684082 3.76365909 -12 4 C-12.99 3.34 -13.98 2.68 -15 2 C-9.92523206 0.73694665 -5.27203646 -0.27036084 0 0 Z " fill="#89B5B7" transform="translate(304,71)"/>
<path d="M0 0 C0.33 0.66 0.66 1.32 1 2 C0.06553465 4.03144641 -0.93224776 6.03533587 -2 8 C-3.32 8 -4.64 8 -6 8 C-4.55746343 4.63408134 -2.66735273 2.48952921 0 0 Z " fill="#313237" transform="translate(360,392)"/>
<path d="M0 0 C1.03115279 3.26913624 0.9638984 5.86041348 0.5625 9.25 C0.46066406 10.14203125 0.35882813 11.0340625 0.25390625 11.953125 C0.12822266 12.96632813 0.12822266 12.96632813 0 14 C-3.0234375 10.3046875 -3.0234375 10.3046875 -2.8125 7.5625 C-1.99357547 4.97973801 -1.06721925 2.49017824 0 0 Z " fill="#333338" transform="translate(177,386)"/>
<path d="M0 0 C0.33 0.66 0.66 1.32 1 2 C2.99281757 2.25713775 4.98829861 2.50836152 6.9921875 2.65625 C9 3 9 3 12 5 C9.44855176 5.93045933 8.25993522 6.08564091 5.640625 5.22265625 C4.85171875 4.83980469 4.0628125 4.45695312 3.25 4.0625 C2.45078125 3.68222656 1.6515625 3.30195313 0.828125 2.91015625 C0.22484375 2.60980469 -0.3784375 2.30945313 -1 2 C-0.67 1.34 -0.34 0.68 0 0 Z " fill="#80A8AD" transform="translate(248,266)"/>
<path d="M0 0 C6.4 0.49230769 6.4 0.49230769 9.4375 3.0625 C10.2109375 4.0215625 10.2109375 4.0215625 11 5 C6.545 4.01 6.545 4.01 2 3 C2 2.34 2 1.68 2 1 C1.34 0.67 0.68 0.34 0 0 Z " fill="#91D0D2" transform="translate(266,273)"/>
<path d="M0 0 C0.33 0.66 0.66 1.32 1 2 C1.66 2 2.32 2 3 2 C3.103125 2.556875 3.20625 3.11375 3.3125 3.6875 C4.13133577 6.44176578 5.45853781 8.58727657 7 11 C3.78078148 10.06812096 2.34301014 9.62068502 0.6875 6.625 C0 4 0 4 0 0 Z " fill="#8ACFD1" transform="translate(201,235)"/>
<path d="M0 0 C0 0.33 0 0.66 0 1 C-6.23182639 2.03863773 -11.74692761 1.83288874 -18 1 C-18 0.67 -18 0.34 -18 0 C-11.74692761 -0.83288874 -6.23182639 -1.03863773 0 0 Z " fill="#3B3A40" transform="translate(86,181)"/>
<path d="M0 0 C1.98 0.99 3.96 1.98 6 3 C4.1875 5 4.1875 5 2 7 C1.01 7 0.02 7 -1 7 C-0.67 4.69 -0.34 2.38 0 0 Z " fill="#92C5CB" transform="translate(389,166)"/>
<path d="M0 0 C0.33 0.99 0.66 1.98 1 3 C-0.25 4.5625 -0.25 4.5625 -2 6 C-4.1875 5.6875 -4.1875 5.6875 -6 5 C-3.375 1.125 -3.375 1.125 0 0 Z " fill="#8BC0C1" transform="translate(230,119)"/>
<path d="M0 0 C0 0.66 0 1.32 0 2 C-1.53125 3.5078125 -1.53125 3.5078125 -3.5 5.125 C-4.1496875 5.66382812 -4.799375 6.20265625 -5.46875 6.7578125 C-5.9740625 7.16773437 -6.479375 7.57765625 -7 8 C-7.66 7.67 -8.32 7.34 -9 7 C-6.82616588 2.86971516 -4.97872903 0 0 0 Z " fill="#8BCFD0" transform="translate(257,94)"/>
<path d="M0 0 C5.03985731 0.44469329 7.37634988 2.71343362 11 6 C10.01 6.495 10.01 6.495 9 7 C6.96855359 6.06553465 4.96466413 5.06775224 3 4 C3 3.34 3 2.68 3 2 C2.01 1.67 1.02 1.34 0 1 C0 0.67 0 0.34 0 0 Z " fill="#8FCECF" transform="translate(312,300)"/>
<path d="M0 0 C2.9719385 1.12451727 5.33440687 2.22293791 8 4 C8 4.66 8 5.32 8 6 C8.66 6.33 9.32 6.66 10 7 C5.1746274 6.58639663 3.13078071 4.5780351 0 1 C0 0.67 0 0.34 0 0 Z " fill="#90CFD0" transform="translate(301,291)"/>
<path d="M0 0 C1.44010481 0.25662245 2.8770687 0.53090821 4.3125 0.8125 C5.11300781 0.96332031 5.91351563 1.11414063 6.73828125 1.26953125 C9.23445587 2.07572236 10.32422106 3.02052002 12 5 C6.71201818 4.58525633 3.88309282 3.64775386 0 0 Z " fill="#88B7B8" transform="translate(276,280)"/>
<path d="M0 0 C1.98 0.495 1.98 0.495 4 1 C4 1.66 4 2.32 4 3 C6.31 3.33 8.62 3.66 11 4 C11 4.66 11 5.32 11 6 C6.61110675 5.33501617 3.0188515 3.81242323 -1 2 C-0.67 1.34 -0.34 0.68 0 0 Z " fill="#7CA8AA" transform="translate(235,261)"/>
<path d="M0 0 C0.66 0 1.32 0 2 0 C0.549046 3.82524236 -1.38181932 5.19090966 -5 7 C-5.66 7 -6.32 7 -7 7 C-6.67 6.01 -6.34 5.02 -6 4 C-4.35 3.67 -2.7 3.34 -1 3 C-0.67 2.01 -0.34 1.02 0 0 Z " fill="#83AAAC" transform="translate(457,180)"/>
<path d="M0 0 C4.29 0 8.58 0 13 0 C13 0.33 13 0.66 13 1 C11.35 1 9.7 1 8 1 C8 1.66 8 2.32 8 3 C4.62537285 2.45276317 2.91765 1.9451 0 0 Z " fill="#85C2C2" transform="translate(427,169)"/>
<path d="M0 0 C1.31223496 3.93670488 0.24296256 6.12488144 -1 10 C-1.66 10 -2.32 10 -3 10 C-3.33 10.66 -3.66 11.32 -4 12 C-3.45660208 7.43545749 -2.20536179 4.0271824 0 0 Z " fill="#84ACAF" transform="translate(211,146)"/>
<path d="M0 0 C1 3 1 3 -0.25 6 C-1.69149811 8.47113961 -2.85630917 10.16255071 -5 12 C-4.42365861 7.24518354 -2.44931479 4.02951788 0 0 Z " fill="#9CD1D3" transform="translate(369,359)"/>
<path d="M0 0 C2 4 2 4 1.5390625 6.140625 C1.23742187 6.83671875 0.93578125 7.5328125 0.625 8.25 C0.32851563 8.95640625 0.03203125 9.6628125 -0.2734375 10.390625 C-0.51320313 10.92171875 -0.75296875 11.4528125 -1 12 C-1.66 11.34 -2.32 10.68 -3 10 C-2.01 6.7 -1.02 3.4 0 0 Z " fill="#88B2B4" transform="translate(382,349)"/>
<path d="M0 0 C0.33 0 0.66 0 1 0 C1.25 7.625 1.25 7.625 -1 11 C-2 10 -2 10 -2.0625 6.9375 C-2.041875 5.968125 -2.02125 4.99875 -2 4 C-1.34 4 -0.68 4 0 4 C0 2.68 0 1.36 0 0 Z " fill="#8DCFD3" transform="translate(201,184)"/>
<path d="M0 0 C2.97 0.495 2.97 0.495 6 1 C6 1.66 6 2.32 6 3 C7.32 2.67 8.64 2.34 10 2 C10.33 2.99 10.66 3.98 11 5 C8 6 8 6 5.95703125 5.0390625 C5.24933594 4.57242188 4.54164063 4.10578125 3.8125 3.625 C3.09707031 3.16351563 2.38164062 2.70203125 1.64453125 2.2265625 C1.10183594 1.82179688 0.55914062 1.41703125 0 1 C0 0.67 0 0.34 0 0 Z " fill="#8ED0D0" transform="translate(358,74)"/>
<path d="M0 0 C2 1.8125 2 1.8125 4 4 C4 4.99 4 5.98 4 7 C2.0625 6.25 2.0625 6.25 0 5 C-0.8125 2.9375 -0.8125 2.9375 -1 1 C-0.67 0.67 -0.34 0.34 0 0 Z " fill="#2E2F34" transform="translate(324,335)"/>
<path d="M0 0 C2.64752004 2.57784846 4.94432065 4.91648098 7 8 C3.76912579 7.44295272 1.97638863 6.66812465 0 4 C0 2.68 0 1.36 0 0 Z " fill="#86B6B6" transform="translate(337,322)"/>
<path d="M0 0 C3.72617422 1.24205807 5.39291457 3.1110675 8 6 C8 6.66 8 7.32 8 8 C4.63820226 6.55922954 2.40843732 4.75249979 0 2 C0 1.34 0 0.68 0 0 Z " fill="#7CA7A8" transform="translate(203,244)"/>
<path d="M0 0 C-0.33 1.65 -0.66 3.3 -1 5 C-2.32 5.33 -3.64 5.66 -5 6 C-5.33 5.34 -5.66 4.68 -6 4 C-2.25 0 -2.25 0 0 0 Z " fill="#2B2A2F" transform="translate(121,192)"/>
<path d="M0 0 C1.65 0 3.3 0 5 0 C5 0.99 5 1.98 5 3 C3.68 3 2.36 3 1 3 C0.67 4.32 0.34 5.64 0 7 C0 4.69 0 2.38 0 0 Z " fill="#201F25" transform="translate(109,205)"/>
<path d="M0 0 C0.99 0.99 1.98 1.98 3 3 C0.69 3.66 -1.62 4.32 -4 5 C-3.6875 3.0625 -3.6875 3.0625 -3 1 C-2.01 0.67 -1.02 0.34 0 0 Z " fill="#403F44" transform="translate(45,201)"/>
<path d="M0 0 C-2.64 1.65 -5.28 3.3 -8 5 C-5.69411765 -1.42352941 -5.69411765 -1.42352941 0 0 Z " fill="#88ABAC" transform="translate(403,196)"/>
<path d="M0 0 C5.35048061 0.37328935 7.50912907 1.9957657 11 6 C7.61121488 6 6.60242783 5.35638802 3.8125 3.5625 C2.73935547 2.88380859 2.73935547 2.88380859 1.64453125 2.19140625 C1.10183594 1.79824219 0.55914062 1.40507812 0 1 C0 0.67 0 0.34 0 0 Z " fill="#4E4E55" transform="translate(136,191)"/>
<path d="M0 0 C0.89203125 0.19464844 1.7840625 0.38929688 2.703125 0.58984375 C3.37859375 0.74582031 4.0540625 0.90179688 4.75 1.0625 C4.75 1.3925 4.75 1.7225 4.75 2.0625 C3.16705218 2.11687607 1.58355744 2.15546271 0 2.1875 C-0.88171875 2.21070313 -1.7634375 2.23390625 -2.671875 2.2578125 C-5.3635858 2.05389502 -6.94904974 1.42801721 -9.25 0.0625 C-5.84598052 -1.07482426 -3.47543336 -0.77739957 0 0 Z " fill="#90CFD1" transform="translate(425.25,187.9375)"/>
<path d="M0 0 C1.0326802 2.78823655 1.04509293 3.8677274 0.0625 6.75 C-0.288125 7.4925 -0.63875 8.235 -1 9 C-1.66 9 -2.32 9 -3 9 C-2.67 6.69 -2.34 4.38 -2 2 C-1.34 2 -0.68 2 0 2 C0 1.34 0 0.68 0 0 Z " fill="#8FCED3" transform="translate(213,147)"/>
<path d="M0 0 C2.475 0.99 2.475 0.99 5 2 C5 2.99 5 3.98 5 5 C3.68 4.67 2.36 4.34 1 4 C1 3.34 1 2.68 1 2 C0.34 1.67 -0.32 1.34 -1 1 C-0.67 0.67 -0.34 0.34 0 0 Z " fill="#85B5B6" transform="translate(368,76)"/>
<path d="M0 0 C2.05078125 0.03255208 4.1015625 0.06510417 6.15234375 0.09765625 C6.15234375 0.75765625 6.15234375 1.41765625 6.15234375 2.09765625 C3.33984375 2.72265625 3.33984375 2.72265625 0.15234375 3.09765625 C-0.83765625 2.43765625 -1.82765625 1.77765625 -2.84765625 1.09765625 C-1.84765625 0.09765625 -1.84765625 0.09765625 0 0 Z " fill="#2A282F" transform="translate(265.84765625,421.90234375)"/>
<path d="M0 0 C1.27875 0.103125 2.5575 0.20625 3.875 0.3125 C4.95394531 0.39951172 4.95394531 0.39951172 6.0546875 0.48828125 C8 1 8 1 10 4 C7.69 3.67 5.38 3.34 3 3 C3 2.34 3 1.68 3 1 C2.01 0.67 1.02 0.34 0 0 Z " fill="#4C4C4F" transform="translate(256,421)"/>
<path d="M0 0 C0.66 0 1.32 0 2 0 C4 2 4 2 4 5 C2.02 5 0.04 5 -2 5 C-1.34 3.35 -0.68 1.7 0 0 Z " fill="#363A42" transform="translate(368,366)"/>
<path d="M0 0 C1.65 0 3.3 0 5 0 C5 0.99 5 1.98 5 3 C6.32 3.66 7.64 4.32 9 5 C4.68607774 4.5206753 2.83430453 3.2542015 0 0 Z " fill="#2A2B30" transform="translate(282,305)"/>
<path d="M0 0 C0.99 0 1.98 0 3 0 C3 2.64 3 5.28 3 8 C2.34 8 1.68 8 1 8 C0.67 5.36 0.34 2.72 0 0 Z " fill="#79ACAD" transform="translate(388,286)"/>
<path d="M0 0 C0.99 0.33 1.98 0.66 3 1 C3 1.99 3 2.98 3 4 C4.32 4.33 5.64 4.66 7 5 C6.01 5.495 6.01 5.495 5 6 C2.96855359 5.06553465 0.96466413 4.06775224 -1 3 C-0.67 2.01 -0.34 1.02 0 0 Z " fill="#2C2D31" transform="translate(201,264)"/>
<path d="M0 0 C-0.33 0.66 -0.66 1.32 -1 2 C-3.64 1.67 -6.28 1.34 -9 1 C-9 0.67 -9 0.34 -9 0 C-5.62182575 -0.84454356 -3.32534757 -1.10844919 0 0 Z " fill="#24252A" transform="translate(315,419)"/>
<path d="M0 0 C2.31 0.66 4.62 1.32 7 2 C7 2.66 7 3.32 7 4 C4.69 3.67 2.38 3.34 0 3 C0 2.01 0 1.02 0 0 Z " fill="#8FC6C8" transform="translate(274,277)"/>
<path d="M0 0 C0.33 0.99 0.66 1.98 1 3 C1.99 2.67 2.98 2.34 4 2 C3.34 4.64 2.68 7.28 2 10 C1.67 10 1.34 10 1 10 C0.67 6.7 0.34 3.4 0 0 Z " fill="#9AD2D3" transform="translate(380,258)"/>
<path d="M0 0 C0.99 0.33 1.98 0.66 3 1 C2.34 2.65 1.68 4.3 1 6 C-0.32 5.34 -1.64 4.68 -3 4 C-2.01 2.68 -1.02 1.36 0 0 Z " fill="#3F3A42" transform="translate(126,193)"/>
<path d="M0 0 C0 0.99 0 1.98 0 3 C-1.8125 4.75 -1.8125 4.75 -4 6 C-4.99 5.67 -5.98 5.34 -7 5 C-6.34 5 -5.68 5 -5 5 C-4.67 4.01 -4.34 3.02 -4 2 C-1.9375 0.8125 -1.9375 0.8125 0 0 Z " fill="#8CD4D9" transform="translate(458,163)"/>
</svg>
